<?xml version="1.0" standalone="yes"?>

<svg version="1.1" viewBox="0.0 0.0 960.0 720.0" fill="none" stroke="none" stroke-linecap="square" stroke-miterlimit="10" xmlns="http://www.w3.org/2000/svg" xmlns:xlink="http://www.w3.org/1999/xlink"><clipPath id="p.0"><path d="m0 0l960.0 0l0 720.0l-960.0 0l0 -720.0z" clip-rule="nonzero"></path></clipPath><g clip-path="url(#p.0)"><path fill="#000000" fill-opacity="0.0" d="m0 0l960.0 0l0 720.0l-960.0 0z" fill-rule="nonzero"></path><path fill="#000000" fill-opacity="0.0" d="m41.56693 439.29004l859.5275 0.7558899" fill-rule="nonzero"></path><path stroke="#000000" stroke-width="2.0" stroke-linejoin="round" stroke-linecap="butt" d="m41.56693 439.29004l859.5275 0.7558899" fill-rule="nonzero"></path><path fill="#000000" fill-opacity="0.0" d="m48.698162 378.34384l445.22836 0l0 51.93701l-445.22836 0z" fill-rule="nonzero"></path><path fill="#000000" fill-opacity="0.0" d="m48.698162 404.20435l445.22836 0l0 35.55905l-445.22836 0z" fill-rule="nonzero"></path><path fill="#000000" d="m68.08879 417.53058l1.796875 0l0 7.84375q0 2.0625 -0.46875 3.265625q-0.453125 1.203125 -1.671875 1.96875q-1.203125 0.75 -3.171875 0.75q-1.9062538 0 -3.1250038 -0.65625q-1.21875 -0.65625 -1.734375 -1.90625q-0.515625 -1.25 -0.515625 -3.421875l0 -7.84375l1.796875 0l0 7.84375q0 1.765625 0.328125 2.609375q0.328125 0.84375 1.125 1.296875q0.8125 0.453125 1.9687538 0.453125q1.984375 0 2.828125 -0.890625q0.84375 -0.90625 0.84375 -3.46875l0 -7.84375zm3.6604462 10.65625l1.65625 -0.265625q0.140625 1.0 0.765625 1.53125q0.640625 0.515625 1.78125 0.515625q1.15625 0 1.703125 -0.46875q0.5625 -0.46875 0.5625 -1.09375q0 -0.5625 -0.484375 -0.890625q-0.34375 -0.21875 -1.703125 -0.5625q-1.84375 -0.46875 -2.5625 -0.796875q-0.703125 -0.34375 -1.078125 -0.9375q-0.359375 -0.609375 -0.359375 -1.328125q0 -0.65625 0.296875 -1.21875q0.3125 -0.5625 0.828125 -0.9375q0.390625 -0.28125 1.0625 -0.484375q0.671875 -0.203125 1.4375 -0.203125q1.171875 0 2.046875 0.34375q0.875 0.328125 1.28125 0.90625q0.421875 0.5625 0.578125 1.515625l-1.625 0.21875q-0.109375 -0.75 -0.65625 -1.171875q-0.53125 -0.4375 -1.5 -0.4375q-1.15625 0 -1.640625 0.390625q-0.484375 0.375 -0.484375 0.875q0 0.328125 0.203125 0.59375q0.203125 0.265625 0.640625 0.4375q0.25 0.09375 1.46875 0.4375q1.765625 0.46875 2.46875 0.765625q0.703125 0.296875 1.09375 0.875q0.40625 0.578125 0.40625 1.4375q0 0.828125 -0.484375 1.578125q-0.484375 0.734375 -1.40625 1.140625q-0.921875 0.390625 -2.078125 0.390625q-1.921875 0 -2.9375 -0.796875q-1.0 -0.796875 -1.28125 -2.359375zm16.75 -0.234375l1.71875 0.21875q-0.40625 1.5 -1.515625 2.34375q-1.09375 0.828125 -2.8125 0.828125q-2.15625 0 -3.421875 -1.328125q-1.265625 -1.328125 -1.265625 -3.734375q0 -2.484375 1.265625 -3.859375q1.28125 -1.375 3.328125 -1.375q1.984375 0 3.234375 1.34375q1.25 1.34375 1.25 3.796875q0 0.140625 -0.015625 0.4375l-7.34375 0q0.09375 1.625 0.921875 2.484375q0.828125 0.859375 2.0625 0.859375q0.90625 0 1.546875 -0.46875q0.65625 -0.484375 1.046875 -1.546875zm-5.484375 -2.703125l5.5 0q-0.109375 -1.234375 -0.625 -1.859375q-0.796875 -0.96875 -2.078125 -0.96875q-1.140625 0 -1.9375 0.78125q-0.78125 0.765625 -0.859375 2.046875zm9.094467 5.875l0 -9.859375l1.5 0l0 1.5q0.578125 -1.046875 1.0625 -1.375q0.484375 -0.34375 1.078125 -0.34375q0.84375 0 1.71875 0.546875l-0.578125 1.546875q-0.609375 -0.359375 -1.234375 -0.359375q-0.546875 0 -0.984375 0.328125q-0.421875 0.328125 -0.609375 0.90625q-0.28125 0.890625 -0.28125 1.953125l0 5.15625l-1.671875 0zm10.739731 -2.9375l1.65625 -0.265625q0.140625 1.0 0.765625 1.53125q0.640625 0.515625 1.78125 0.515625q1.15625 0 1.703125 -0.46875q0.5625 -0.46875 0.5625 -1.09375q0 -0.5625 -0.484375 -0.890625q-0.34375 -0.21875 -1.703125 -0.5625q-1.84375 -0.46875 -2.5625 -0.796875q-0.703125 -0.34375 -1.078125 -0.9375q-0.359375 -0.609375 -0.359375 -1.328125q0 -0.65625 0.296875 -1.21875q0.3125 -0.5625 0.828125 -0.9375q0.390625 -0.28125 1.0625 -0.484375q0.671875 -0.203125 1.4375 -0.203125q1.171875 0 2.046875 0.34375q0.875 0.328125 1.28125 0.90625q0.421875 0.5625 0.578125 1.515625l-1.625 0.21875q-0.109375 -0.75 -0.65625 -1.171875q-0.53125 -0.4375 -1.5 -0.4375q-1.15625 0 -1.640625 0.390625q-0.484375 0.375 -0.484375 0.875q0 0.328125 0.203125 0.59375q0.203125 0.265625 0.640625 0.4375q0.25 0.09375 1.46875 0.4375q1.765625 0.46875 2.46875 0.765625q0.703125 0.296875 1.09375 0.875q0.40625 0.578125 0.40625 1.4375q0 0.828125 -0.484375 1.578125q-0.484375 0.734375 -1.40625 1.140625q-0.921875 0.390625 -2.078125 0.390625q-1.921875 0 -2.9375 -0.796875q-1.0 -0.796875 -1.28125 -2.359375zm10.0 6.71875l0 -13.640625l1.53125 0l0 1.28125q0.53125 -0.75 1.203125 -1.125q0.6875 -0.375 1.640625 -0.375q1.265625 0 2.234375 0.65625q0.96875 0.640625 1.453125 1.828125q0.5 1.1875 0.5 2.59375q0 1.515625 -0.546875 2.734375q-0.546875 1.203125 -1.578125 1.84375q-1.03125 0.640625 -2.171875 0.640625q-0.84375 0 -1.515625 -0.34375q-0.65625 -0.359375 -1.078125 -0.890625l0 4.796875l-1.671875 0zm1.515625 -8.65625q0 1.90625 0.765625 2.8125q0.78125 0.90625 1.875 0.90625q1.109375 0 1.890625 -0.9375q0.796875 -0.9375 0.796875 -2.921875q0 -1.875 -0.78125 -2.8125q-0.765625 -0.9375 -1.84375 -0.9375q-1.0625 0 -1.890625 1.0q-0.8125 1.0 -0.8125 2.890625zm15.297592 3.65625q-0.9375 0.796875 -1.796875 1.125q-0.859375 0.3125 -1.84375 0.3125q-1.609375 0 -2.484375 -0.78125q-0.875 -0.796875 -0.875 -2.03125q0 -0.734375 0.328125 -1.328125q0.328125 -0.59375 0.859375 -0.953125q0.53125 -0.359375 1.203125 -0.546875q0.5 -0.140625 1.484375 -0.25q2.03125 -0.25 2.984375 -0.578125q0 -0.34375 0 -0.4375q0 -1.015625 -0.46875 -1.4375q-0.640625 -0.5625 -1.90625 -0.5625q-1.171875 0 -1.734375 0.40625q-0.5625 0.40625 -0.828125 1.46875l-1.640625 -0.234375q0.234375 -1.046875 0.734375 -1.6875q0.515625 -0.640625 1.46875 -0.984375q0.96875 -0.359375 2.25 -0.359375q1.265625 0 2.046875 0.296875q0.78125 0.296875 1.15625 0.75q0.375 0.453125 0.515625 1.140625q0.09375 0.421875 0.09375 1.53125l0 2.234375q0 2.328125 0.09375 2.953125q0.109375 0.609375 0.4375 1.171875l-1.75 0q-0.265625 -0.515625 -0.328125 -1.21875zm-0.140625 -3.71875q-0.90625 0.359375 -2.734375 0.625q-1.03125 0.140625 -1.453125 0.328125q-0.421875 0.1875 -0.65625 0.546875q-0.234375 0.359375 -0.234375 0.796875q0 0.671875 0.5 1.125q0.515625 0.4375 1.484375 0.4375q0.96875 0 1.71875 -0.421875q0.75 -0.4375 1.109375 -1.15625q0.265625 -0.578125 0.265625 -1.671875l0 -0.609375zm10.516342 1.328125l1.640625 0.21875q-0.265625 1.6875 -1.375 2.65625q-1.109375 0.953125 -2.734375 0.953125q-2.015625 0 -3.25 -1.3125q-1.21875 -1.328125 -1.21875 -3.796875q0 -1.59375 0.515625 -2.78125q0.53125 -1.203125 1.609375 -1.796875q1.09375 -0.609375 2.359375 -0.609375q1.609375 0 2.625 0.8125q1.015625 0.8125 1.3125 2.3125l-1.625 0.25q-0.234375 -1.0 -0.828125 -1.5q-0.59375 -0.5 -1.421875 -0.5q-1.265625 0 -2.0625 0.90625q-0.78125 0.90625 -0.78125 2.859375q0 1.984375 0.765625 2.890625q0.765625 0.890625 1.984375 0.890625q0.984375 0 1.640625 -0.59375q0.65625 -0.609375 0.84375 -1.859375zm9.640625 0.4375l1.71875 0.21875q-0.40625 1.5 -1.515625 2.34375q-1.09375 0.828125 -2.8125 0.828125q-2.15625 0 -3.421875 -1.328125q-1.265625 -1.328125 -1.265625 -3.734375q0 -2.484375 1.265625 -3.859375q1.28125 -1.375 3.328125 -1.375q1.984375 0 3.234375 1.34375q1.25 1.34375 1.25 3.796875q0 0.140625 -0.015625 0.4375l-7.34375 0q0.09375 1.625 0.921875 2.484375q0.828125 0.859375 2.0625 0.859375q0.90625 0 1.546875 -0.46875q0.65625 -0.484375 1.046875 -1.546875zm-5.484375 -2.703125l5.5 0q-0.109375 -1.234375 -0.625 -1.859375q-0.796875 -0.96875 -2.078125 -0.96875q-1.140625 0 -1.9375 0.78125q-0.78125 0.765625 -0.859375 2.046875z" fill-rule="nonzero"></path><path fill="#000000" fill-opacity="0.0" d="m48.698162 434.0958l445.22836 0l0 51.93701l-445.22836 0z" fill-rule="nonzero"></path><path fill="#000000" d="m59.088787 461.0158l0 -13.59375l1.796875 0l0 6.734375l6.765629 -6.734375l2.4375 0l-5.703125 5.5l5.953125 8.09375l-2.375 0l-4.843754 -6.890625l-2.234375 2.171875l0 4.71875l-1.796875 0zm19.052952 -3.171875l1.71875 0.21875q-0.40625 1.5 -1.515625 2.34375q-1.09375 0.828125 -2.8125 0.828125q-2.15625 0 -3.421875 -1.328125q-1.265625 -1.328125 -1.265625 -3.734375q0 -2.484375 1.265625 -3.859375q1.28125 -1.375 3.328125 -1.375q1.984375 0 3.234375 1.34375q1.25 1.34375 1.25 3.796875q0 0.140625 -0.015625 0.4375l-7.34375 0q0.09375 1.625 0.921875 2.484375q0.828125 0.859375 2.0625 0.859375q0.90625 0 1.546875 -0.46875q0.65625 -0.484375 1.046875 -1.546875zm-5.484375 -2.703125l5.5 0q-0.109375 -1.234375 -0.625 -1.859375q-0.796875 -0.96875 -2.078125 -0.96875q-1.140625 0 -1.9375 0.78125q-0.78125 0.765625 -0.859375 2.046875zm9.094467 5.875l0 -9.859375l1.5 0l0 1.5q0.578125 -1.046875 1.0625 -1.375q0.484375 -0.34375 1.078125 -0.34375q0.84375 0 1.71875 0.546875l-0.578125 1.546875q-0.609375 -0.359375 -1.234375 -0.359375q-0.546875 0 -0.984375 0.328125q-0.421875 0.328125 -0.609375 0.90625q-0.28125 0.890625 -0.28125 1.953125l0 5.15625l-1.671875 0zm6.228302 0l0 -9.859375l1.5 0l0 1.40625q1.09375 -1.625 3.140625 -1.625q0.890625 0 1.640625 0.328125q0.75 0.3125 1.109375 0.84375q0.375 0.515625 0.53125 1.21875q0.09375 0.46875 0.09375 1.625l0 6.0625l-1.671875 0l0 -6.0q0 -1.015625 -0.203125 -1.515625q-0.1875 -0.515625 -0.6875 -0.8125q-0.5 -0.296875 -1.171875 -0.296875q-1.0625 0 -1.84375 0.671875q-0.765625 0.671875 -0.765625 2.578125l0 5.375l-1.671875 0zm17.125717 -3.171875l1.71875 0.21875q-0.40625 1.5 -1.515625 2.34375q-1.09375 0.828125 -2.8125 0.828125q-2.15625 0 -3.421875 -1.328125q-1.265625 -1.328125 -1.265625 -3.734375q0 -2.484375 1.265625 -3.859375q1.28125 -1.375 3.328125 -1.375q1.984375 0 3.234375 1.34375q1.25 1.34375 1.25 3.796875q0 0.140625 -0.015625 0.4375l-7.34375 0q0.09375 1.625 0.921875 2.484375q0.828125 0.859375 2.0625 0.859375q0.90625 0 1.546875 -0.46875q0.65625 -0.484375 1.046875 -1.546875zm-5.484375 -2.703125l5.5 0q-0.109375 -1.234375 -0.625 -1.859375q-0.796875 -0.96875 -2.078125 -0.96875q-1.140625 0 -1.9375 0.78125q-0.78125 0.765625 -0.859375 2.046875zm9.078842 5.875l0 -13.59375l1.671875 0l0 13.59375l-1.671875 0z" fill-rule="nonzero"></path><path fill="#cfe2f3" d="m210.64305 570.83466l617.95276 0l0 115.1496l-617.95276 0z" fill-rule="nonzero"></path><path stroke="#000000" stroke-width="2.0" stroke-linejoin="round" stroke-linecap="butt" d="m210.64305 570.83466l617.95276 0l0 115.1496l-617.95276 0z" fill-rule="nonzero"></path><path fill="#000000" d="m335.03934 642.80945l0 -28.640625l19.3125 0l0 3.390625l-15.515625 0l0 8.859375l13.4375 0l0 3.375l-13.4375 0l0 13.015625l-3.796875 0zm43.027344 -28.640625l3.796875 0l0 16.546875q0 4.3125 -0.984375 6.859375q-0.96875 2.53125 -3.53125 4.125q-2.546875 1.59375 -6.6875 1.59375q-4.015625 0 -6.578125 -1.375q-2.5625 -1.390625 -3.65625 -4.015625q-1.09375 -2.640625 -1.09375 -7.1875l0 -16.546875l3.796875 0l0 16.53125q0 3.734375 0.6875 5.5q0.703125 1.765625 2.390625 2.71875q1.6875 0.953125 4.125 0.953125q4.1875 0 5.953125 -1.890625q1.78125 -1.890625 1.78125 -7.28125l0 -16.53125zm8.808594 19.4375l3.578125 -0.3125q0.25 2.15625 1.171875 3.53125q0.9375 1.375 2.890625 2.234375q1.953125 0.84375 4.390625 0.84375q2.171875 0 3.828125 -0.640625q1.65625 -0.65625 2.46875 -1.78125q0.8125 -1.125 0.8125 -2.453125q0 -1.34375 -0.78125 -2.34375q-0.78125 -1.015625 -2.578125 -1.6875q-1.15625 -0.453125 -5.109375 -1.390625q-3.9375 -0.953125 -5.515625 -1.796875q-2.046875 -1.078125 -3.0625 -2.671875q-1.0 -1.59375 -1.0 -3.5625q0 -2.171875 1.234375 -4.046875q1.234375 -1.890625 3.59375 -2.859375q2.359375 -0.984375 5.25 -0.984375q3.1875 0 5.609375 1.03125q2.4375 1.015625 3.75 3.015625q1.3125 1.984375 1.40625 4.515625l-3.640625 0.265625q-0.28125 -2.71875 -1.984375 -4.09375q-1.6875 -1.390625 -4.984375 -1.390625q-3.4375 0 -5.015625 1.265625q-1.5625 1.25 -1.5625 3.03125q0 1.546875 1.109375 2.53125q1.09375 1.0 5.703125 2.046875q4.625 1.046875 6.34375 1.828125q2.5 1.15625 3.6875 2.921875q1.203125 1.765625 1.203125 4.0625q0 2.296875 -1.3125 4.3125q-1.3125 2.015625 -3.765625 3.140625q-2.4375 1.125 -5.515625 1.125q-3.875 0 -6.515625 -1.125q-2.625 -1.140625 -4.125 -3.40625q-1.484375 -2.28125 -1.5625 -5.15625zm28.054688 9.203125l0 -28.640625l20.703125 0l0 3.390625l-16.921875 0l0 8.765625l15.84375 0l0 3.359375l-15.84375 0l0 9.75l17.578125 0l0 3.375l-21.359375 0zm37.558594 0l0 -28.640625l3.78125 0l0 14.203125l14.21875 -14.203125l5.140625 0l-12.015625 11.609375l12.546875 17.03125l-5.0 0l-10.203125 -14.5l-4.6875 4.578125l0 9.921875l-3.78125 0zm40.585938 -6.6875l3.625 0.453125q-0.859375 3.1875 -3.1875 4.953125q-2.3125 1.75 -5.9375 1.75q-4.546875 0 -7.21875 -2.796875q-2.65625 -2.8125 -2.65625 -7.875q0 -5.234375 2.6875 -8.125q2.703125 -2.890625 7.0 -2.890625q4.15625 0 6.796875 2.84375q2.640625 2.828125 2.640625 7.96875q0 0.3125 -0.03125 0.9375l-15.46875 0q0.203125 3.40625 1.9375 5.234375q1.734375 1.8125 4.34375 1.8125q1.921875 0 3.28125 -1.015625q1.375 -1.015625 2.1875 -3.25zm-11.546875 -5.671875l11.578125 0q-0.234375 -2.625 -1.328125 -3.9375q-1.671875 -2.03125 -4.359375 -2.03125q-2.421875 0 -4.078125 1.625q-1.640625 1.625 -1.8125 4.34375zm19.542969 12.359375l0 -20.75l3.171875 0l0 3.15625q1.203125 -2.21875 2.234375 -2.921875q1.03125 -0.703125 2.25 -0.703125q1.78125 0 3.6250305 1.140625l-1.2187805 3.265625q-1.28125 -0.765625 -2.578125 -0.765625q-1.15625 0 -2.078125 0.703125q-0.90625 0.6875 -1.296875 1.90625q-0.59375 1.875 -0.59375 4.109375l0 10.859375l-3.515625 0zm13.367218 0l0 -20.75l3.15625 0l0 2.953125q2.296875 -3.421875 6.609375 -3.421875q1.875 0 3.4375 0.6875q1.578125 0.671875 2.359375 1.765625q0.78125 1.09375 1.09375 2.59375q0.203125 0.96875 0.203125 3.421875l0 12.75l-3.515625 0l0 -12.625q0 -2.140625 -0.421875 -3.203125q-0.40625 -1.0625 -1.453125 -1.703125q-1.046875 -0.640625 -2.453125 -0.640625q-2.234375 0 -3.875 1.4375q-1.625 1.421875 -1.625 5.40625l0 11.328125l-3.515625 0zm36.44922 -6.6875l3.625 0.453125q-0.859375 3.1875 -3.1875 4.953125q-2.3125 1.75 -5.9375 1.75q-4.546875 0 -7.21875 -2.796875q-2.65625 -2.8125 -2.65625 -7.875q0 -5.234375 2.6875 -8.125q2.703125 -2.890625 7.0 -2.890625q4.15625 0 6.796875 2.84375q2.640625 2.828125 2.640625 7.96875q0 0.3125 -0.03125 0.9375l-15.46875 0q0.203125 3.40625 1.9375 5.234375q1.734375 1.8125 4.34375 1.8125q1.921875 0 3.28125 -1.015625q1.375 -1.015625 2.1875 -3.25zm-11.546875 -5.671875l11.578125 0q-0.234375 -2.625 -1.328125 -3.9375q-1.671875 -2.03125 -4.359375 -2.03125q-2.421875 0 -4.078125 1.625q-1.640625 1.625 -1.8125 4.34375zm19.511719 12.359375l0 -28.640625l3.515625 0l0 28.640625l-3.515625 0zm20.40625 0l0 -28.640625l5.703125 0l6.78125 20.28125q0.9375 2.828125 1.359375 4.234375q0.5 -1.5625 1.53125 -4.59375l6.859375 -19.921875l5.09375 0l0 28.640625l-3.65625 0l0 -23.96875l-8.3125 23.96875l-3.421875 0l-8.28125 -24.375l0 24.375l-3.65625 0zm31.679688 -10.375q0 -5.765625 3.203125 -8.53125q2.671875 -2.3125 6.53125 -2.3125q4.265625 0 6.984375 2.8125q2.71875 2.796875 2.71875 7.734375q0 4.015625 -1.203125 6.3125q-1.203125 2.28125 -3.5 3.5625q-2.296875 1.265625 -5.0 1.265625q-4.359375 0 -7.046875 -2.796875q-2.6875 -2.796875 -2.6875 -8.046875zm3.609375 0q0 3.984375 1.734375 5.96875q1.75 1.984375 4.390625 1.984375q2.609375 0 4.34375 -1.984375q1.75 -2.0 1.75 -6.078125q0 -3.859375 -1.75 -5.828125q-1.75 -1.984375 -4.34375 -1.984375q-2.640625 0 -4.390625 1.96875q-1.734375 1.96875 -1.734375 5.953125zm33.402344 10.375l0 -2.625q-1.96875 3.09375 -5.796875 3.09375q-2.484375 0 -4.5625 -1.359375q-2.078125 -1.375 -3.21875 -3.828125q-1.140625 -2.453125 -1.140625 -5.640625q0 -3.09375 1.03125 -5.625q1.03125 -2.53125 3.09375 -3.875q2.078125 -1.359375 4.640625 -1.359375q1.875 0 3.328125 0.796875q1.46875 0.796875 2.390625 2.0625l0 -10.28125l3.5 0l0 28.640625l-3.265625 0zm-11.109375 -10.359375q0 3.984375 1.671875 5.96875q1.6875 1.96875 3.96875 1.96875q2.3125 0 3.921875 -1.875q1.609375 -1.890625 1.609375 -5.765625q0 -4.25 -1.640625 -6.234375q-1.640625 -2.0 -4.046875 -2.0q-2.34375 0 -3.921875 1.921875q-1.5625 1.90625 -1.5625 6.015625zm33.496094 10.359375l0 -3.046875q-2.421875 3.515625 -6.578125 3.515625q-1.84375 0 -3.4375 -0.703125q-1.59375 -0.703125 -2.359375 -1.765625q-0.765625 -1.0625 -1.078125 -2.609375q-0.21875 -1.03125 -0.21875 -3.28125l0 -12.859375l3.515625 0l0 11.515625q0 2.75 0.21875 3.703125q0.328125 1.390625 1.390625 2.1875q1.078125 0.78125 2.671875 0.78125q1.578125 0 2.953125 -0.8125q1.390625 -0.8125 1.96875 -2.203125q0.578125 -1.390625 0.578125 -4.046875l0 -11.125l3.515625 0l0 20.75l-3.140625 0zm8.574219 0l0 -28.640625l3.515625 0l0 28.640625l-3.515625 0zm23.167969 -6.6875l3.625 0.453125q-0.859375 3.1875 -3.1875 4.953125q-2.3125 1.75 -5.9375 1.75q-4.546875 0 -7.21875 -2.796875q-2.65625 -2.8125 -2.65625 -7.875q0 -5.234375 2.6875 -8.125q2.703125 -2.890625 7.0 -2.890625q4.15625 0 6.796875 2.84375q2.640625 2.828125 2.640625 7.96875q0 0.3125 -0.03125 0.9375l-15.46875 0q0.203125 3.40625 1.9375 5.234375q1.734375 1.8125 4.34375 1.8125q1.921875 0 3.28125 -1.015625q1.375 -1.015625 2.1875 -3.25zm-11.546875 -5.671875l11.578125 0q-0.234375 -2.625 -1.328125 -3.9375q-1.671875 -2.03125 -4.359375 -2.03125q-2.421875 0 -4.078125 1.625q-1.640625 1.625 -1.8125 4.34375z" fill-rule="nonzero"></path><path fill="#cfe2f3" d="m187.06299 205.90303l0 0c0 -4.1255493 3.3444214 -7.4699554 7.4699707 -7.4699554l237.02856 0c1.9811707 0 3.881195 0.78700256 5.282074 2.1878967c1.4008789 1.4008942 2.1878967 3.3009033 2.1878967 5.2820587l0 29.878967c0 4.1255493 -3.3444214 7.4699707 -7.4699707 7.4699707l-237.02856 0c-4.1255493 0 -7.4699707 -3.3444214 -7.4699707 -7.4699707z" fill-rule="nonzero"></path><path stroke="#000000" stroke-width="2.0" stroke-linejoin="round" stroke-linecap="butt" d="m187.06299 205.90303l0 0c0 -4.1255493 3.3444214 -7.4699554 7.4699707 -7.4699554l237.02856 0c1.9811707 0 3.881195 0.78700256 5.282074 2.1878967c1.4008789 1.4008942 2.1878967 3.3009033 2.1878967 5.2820587l0 29.878967c0 4.1255493 -3.3444214 7.4699707 -7.4699707 7.4699707l-237.02856 0c-4.1255493 0 -7.4699707 -3.3444214 -7.4699707 -7.4699707z" fill-rule="nonzero"></path><path fill="#000000" d="m203.75087 213.88751l1.34375 0l-0.25 1.8125q0.484375 0.046875 0.96875 0.125q0.484375 0.078125 0.90625 0.171875l0 1.4375q-0.515625 -0.140625 -1.03125 -0.234375q-0.515625 -0.09375 -1.015625 -0.140625l-0.53125 3.984375q0.625 0.234375 1.234375 0.515625q0.609375 0.28125 1.09375 0.671875q0.5 0.375 0.796875 0.90625q0.296875 0.53125 0.296875 1.265625q0 0.78125 -0.3125 1.390625q-0.3125 0.59375 -0.890625 1.015625q-0.5625 0.421875 -1.359375 0.65625q-0.796875 0.234375 -1.75 0.28125l-0.3125 2.203125l-1.34375 0l0.296875 -2.203125q-0.75 -0.0625 -1.4375 -0.15625q-0.671875 -0.109375 -1.171875 -0.25l0 -1.53125q0.578125 0.203125 1.265625 0.328125q0.703125 0.125 1.546875 0.171875l0.546875 -4.171875q-0.609375 -0.234375 -1.203125 -0.5q-0.578125 -0.265625 -1.03125 -0.640625q-0.453125 -0.375 -0.75 -0.890625q-0.28125 -0.515625 -0.28125 -1.21875q0 -0.5625 0.234375 -1.125q0.25 -0.5625 0.75 -1.015625q0.515625 -0.453125 1.296875 -0.734375q0.78125 -0.296875 1.859375 -0.359375l0.234375 -1.765625zm-0.421875 3.15625q-1.15625 0.109375 -1.703125 0.546875q-0.53125 0.4375 -0.53125 1.125q0 0.640625 0.4375 1.0625q0.453125 0.40625 1.328125 0.75l0.46875 -3.484375zm0.109375 9.265625q1.25 -0.09375 1.8125 -0.546875q0.578125 -0.46875 0.578125 -1.265625q0 -0.328125 -0.125 -0.59375q-0.109375 -0.265625 -0.359375 -0.484375q-0.234375 -0.21875 -0.59375 -0.390625q-0.359375 -0.1875 -0.84375 -0.375l-0.46875 3.65625zm19.983337 -10.328125l-2.75 0l0 -1.328125l4.390625 0l0 11.765625l2.765625 0l0 1.34375l-7.46875 0l0 -1.34375l3.0625 0l0 -10.4375zm14.460419 9.234375q0 0.5 -0.171875 0.890625q-0.15625 0.390625 -0.453125 0.6875q-0.28125 0.296875 -0.671875 0.515625q-0.375 0.21875 -0.8125 0.359375q-0.421875 0.125 -0.875 0.1875q-0.453125 0.078125 -0.890625 0.078125q-0.953125 0 -1.75 -0.09375q-0.78125 -0.078125 -1.546875 -0.265625l0 -1.484375q0.8125 0.234375 1.625 0.359375q0.8125 0.109375 1.609375 0.109375q1.15625 0 1.703125 -0.3125q0.5625 -0.3125 0.5625 -0.890625q0 -0.25 -0.09375 -0.453125q-0.078125 -0.203125 -0.3125 -0.375q-0.234375 -0.1875 -0.71875 -0.375q-0.484375 -0.203125 -1.328125 -0.453125q-0.640625 -0.1875 -1.171875 -0.421875q-0.53125 -0.234375 -0.921875 -0.5625q-0.390625 -0.328125 -0.609375 -0.765625q-0.21875 -0.4375 -0.21875 -1.03125q0 -0.390625 0.171875 -0.84375q0.1875 -0.46875 0.625 -0.859375q0.4375 -0.40625 1.171875 -0.671875q0.75 -0.265625 1.859375 -0.265625q0.546875 0 1.21875 0.0625q0.671875 0.0625 1.390625 0.203125l0 1.4375q-0.765625 -0.171875 -1.453125 -0.265625q-0.671875 -0.09375 -1.171875 -0.09375q-0.609375 0 -1.03125 0.09375q-0.40625 0.09375 -0.65625 0.265625q-0.25 0.15625 -0.375 0.375q-0.109375 0.21875 -0.109375 0.46875q0 0.25 0.09375 0.453125q0.109375 0.203125 0.375 0.390625q0.265625 0.1875 0.734375 0.390625q0.46875 0.1875 1.234375 0.40625q0.828125 0.234375 1.390625 0.5q0.5625 0.265625 0.90625 0.59375q0.359375 0.328125 0.515625 0.734375q0.15625 0.40625 0.15625 0.921875zm19.655228 -1.75l-5.5468903 0l0 -1.515625l5.5468903 0l0 1.515625zm6.9135437 -7.484375l-2.75 0l0 -1.328125l4.390625 0l0 11.765625l2.765625 0l0 1.34375l-7.46875 0l0 -1.34375l3.0625 0l0 -10.4375zm23.983337 11.78125l0 -6.6875q0 -0.4375 -0.03125 -0.71875q-0.03125 -0.28125 -0.109375 -0.4375q-0.0625 -0.15625 -0.171875 -0.21875q-0.109375 -0.078125 -0.265625 -0.078125q-0.1875 0 -0.34375 0.125q-0.15625 0.109375 -0.34375 0.359375q-0.171875 0.25 -0.390625 0.65625q-0.21875 0.40625 -0.515625 1.015625l0 5.984375l-1.46875 0l0 -6.515625q0 -0.5 -0.03125 -0.8125q-0.03125 -0.328125 -0.109375 -0.5q-0.0625 -0.171875 -0.1875 -0.234375q-0.109375 -0.078125 -0.265625 -0.078125q-0.15625 0 -0.3125 0.09375q-0.140625 0.09375 -0.328125 0.34375q-0.171875 0.234375 -0.40625 0.65625q-0.21875 0.40625 -0.53125 1.0625l0 5.984375l-1.484375 0l0 -9.3125l1.234375 0l0.078125 1.765625q0.25 -0.53125 0.46875 -0.890625q0.234375 -0.375 0.46875 -0.59375q0.25 -0.234375 0.515625 -0.34375q0.28125 -0.109375 0.609375 -0.109375q0.75 0 1.140625 0.5q0.390625 0.484375 0.390625 1.515625q0.21875 -0.484375 0.4375 -0.859375q0.21875 -0.375 0.453125 -0.625q0.25 -0.265625 0.546875 -0.390625q0.296875 -0.140625 0.6875 -0.140625q1.75 0 1.75 2.703125l0 6.78125l-1.484375 0zm3.6166687 -9.3125l1.4375 0l0.0625 1.5q0.40625 -0.484375 0.78125 -0.796875q0.390625 -0.328125 0.75 -0.515625q0.375 -0.203125 0.75 -0.28125q0.390625 -0.078125 0.796875 -0.078125q1.4375 0 2.171875 0.859375q0.734375 0.84375 0.734375 2.546875l0 6.078125l-1.609375 0l0 -5.953125q0 -1.09375 -0.40625 -1.609375q-0.40625 -0.53125 -1.21875 -0.53125q-0.296875 0 -0.578125 0.09375q-0.28125 0.09375 -0.59375 0.3125q-0.296875 0.203125 -0.65625 0.578125q-0.359375 0.375 -0.8125 0.9375l0 6.171875l-1.609375 0l0 -9.3125zm17.757294 9.1875q-0.546875 0.140625 -1.125 0.1875q-0.578125 0.0625 -1.1875 0.0625q-1.75 0 -2.625 -0.78125q-0.859375 -0.796875 -0.859375 -2.4375l0 -4.859375l-2.609375 0l0 -1.359375l2.609375 0l0 -2.5625l1.625 -0.421875l0 2.984375l4.171875 0l0 1.359375l-4.171875 0l0 4.71875q0 1.0 0.53125 1.5q0.53125 0.5 1.5625 0.5q0.453125 0 0.984375 -0.0625q0.53125 -0.078125 1.09375 -0.21875l0 1.390625z" fill-rule="nonzero"></path><path fill="#cfe2f3" d="m187.06299 294.68173l251.9685 0l0 43.84253l-251.9685 0z" fill-rule="nonzero"></path><path stroke="#000000" stroke-width="2.0" stroke-linejoin="round" stroke-linecap="butt" d="m187.06299 294.68173l251.9685 0l0 43.84253l-251.9685 0z" fill-rule="nonzero"></path><path fill="#000000" d="m204.25049 315.523q0.265625 0.328125 0.40625 0.765625q0.140625 0.421875 0.140625 0.921875q0 0.734375 -0.265625 1.328125q-0.265625 0.59375 -0.75 1.03125q-0.46875 0.421875 -1.140625 0.65625q-0.671875 0.234375 -1.484375 0.234375q-0.578125 0 -1.09375 -0.125q-0.515625 -0.125 -0.8125 -0.3125q-0.171875 0.265625 -0.296875 0.5q-0.109375 0.21875 -0.109375 0.515625q0 0.34375 0.328125 0.578125q0.34375 0.234375 0.90625 0.25l2.4375 0.09375q0.703125 0.015625 1.28125 0.1875q0.59375 0.15625 1.015625 0.453125q0.421875 0.296875 0.65625 0.734375q0.25 0.421875 0.25 1.0q0 0.625 -0.28125 1.171875q-0.265625 0.5625 -0.828125 0.984375q-0.5625 0.421875 -1.421875 0.671875q-0.859375 0.25 -2.046875 0.25q-1.140625 0 -1.9375 -0.1875q-0.78125 -0.171875 -1.296875 -0.5q-0.5 -0.3125 -0.734375 -0.75q-0.234375 -0.4375 -0.234375 -0.96875q0 -0.671875 0.3125 -1.1875q0.3125 -0.515625 0.96875 -0.984375q-0.234375 -0.109375 -0.421875 -0.265625q-0.171875 -0.171875 -0.28125 -0.375q-0.109375 -0.203125 -0.171875 -0.421875q-0.046875 -0.21875 -0.046875 -0.4375q0 -0.609375 0.28125 -1.109375q0.28125 -0.5 0.671875 -0.9375q-0.171875 -0.21875 -0.3125 -0.421875q-0.125 -0.203125 -0.234375 -0.4375q-0.09375 -0.234375 -0.140625 -0.5q-0.046875 -0.28125 -0.046875 -0.640625q0 -0.71875 0.25 -1.3125q0.265625 -0.609375 0.75 -1.03125q0.484375 -0.4375 1.15625 -0.671875q0.671875 -0.234375 1.484375 -0.234375q0.34375 0 0.65625 0.046875q0.3125 0.046875 0.5625 0.125l3.375 0l0 1.3125l-1.5 0zm-5.59375 9.34375q0 0.65625 0.6875 0.953125q0.6875 0.3125 1.90625 0.3125q0.765625 0 1.28125 -0.140625q0.53125 -0.140625 0.84375 -0.375q0.328125 -0.21875 0.46875 -0.515625q0.140625 -0.28125 0.140625 -0.59375q0 -0.5625 -0.46875 -0.84375q-0.453125 -0.265625 -1.40625 -0.3125l-2.4375 -0.078125q-0.3125 0.203125 -0.515625 0.390625q-0.1875 0.203125 -0.296875 0.40625q-0.109375 0.203125 -0.15625 0.390625q-0.046875 0.203125 -0.046875 0.40625zm0.484375 -7.609375q0 0.4375 0.140625 0.8125q0.15625 0.375 0.421875 0.640625q0.28125 0.25 0.640625 0.390625q0.359375 0.140625 0.8125 0.140625q0.484375 0 0.859375 -0.15625q0.375 -0.171875 0.625 -0.4375q0.265625 -0.28125 0.390625 -0.640625q0.140625 -0.359375 0.140625 -0.75q0 -0.453125 -0.15625 -0.8125q-0.140625 -0.375 -0.421875 -0.640625q-0.265625 -0.265625 -0.640625 -0.40625q-0.359375 -0.140625 -0.796875 -0.140625q-0.484375 0 -0.859375 0.171875q-0.375 0.15625 -0.640625 0.4375q-0.25 0.265625 -0.390625 0.640625q-0.125 0.359375 -0.125 0.75zm11.835419 -5.515625l-2.75 0l0 -1.328125l4.390625 0l0 11.765625l2.765625 0l0 1.34375l-7.46875 0l0 -1.34375l3.0625 0l0 -10.4375zm10.257294 3.796875l-2.75 0l0 -1.328125l4.390625 0l0 7.96875l2.765625 0l0 1.34375l-7.46875 0l0 -1.34375l3.0625 0l0 -6.640625zm0.5625 -5.234375q0.28125 0 0.5 0.09375q0.234375 0.09375 0.40625 0.28125q0.171875 0.171875 0.265625 0.40625q0.109375 0.21875 0.109375 0.484375q0 0.265625 -0.109375 0.5q-0.09375 0.234375 -0.265625 0.40625q-0.171875 0.171875 -0.40625 0.28125q-0.21875 0.09375 -0.5 0.09375q-0.265625 0 -0.5 -0.09375q-0.234375 -0.109375 -0.40625 -0.28125q-0.171875 -0.171875 -0.265625 -0.40625q-0.09375 -0.234375 -0.09375 -0.5q0 -0.265625 0.09375 -0.484375q0.09375 -0.234375 0.265625 -0.40625q0.171875 -0.1875 0.40625 -0.28125q0.234375 -0.09375 0.5 -0.09375zm14.476044 8.390625q0 1.15625 -0.328125 2.078125q-0.3125 0.90625 -0.90625 1.546875q-0.578125 0.640625 -1.421875 0.984375q-0.84375 0.328125 -1.90625 0.328125q-0.828125 0 -1.6875 -0.15625q-0.859375 -0.15625 -1.703125 -0.5l0 -12.5625l1.609375 0l0 3.609375l-0.0625 1.71875q0.6875 -0.9375 1.484375 -1.3125q0.796875 -0.390625 1.703125 -0.390625q0.796875 0 1.390625 0.34375q0.609375 0.328125 1.015625 0.9375q0.40625 0.609375 0.609375 1.46875q0.203125 0.859375 0.203125 1.90625zm-1.640625 0.078125q0 -0.734375 -0.109375 -1.34375q-0.109375 -0.609375 -0.34375 -1.046875q-0.234375 -0.4375 -0.59375 -0.6875q-0.359375 -0.25 -0.859375 -0.25q-0.3125 0 -0.625 0.109375q-0.3125 0.09375 -0.65625 0.328125q-0.328125 0.21875 -0.703125 0.59375q-0.375 0.375 -0.8125 0.9375l0 4.515625q0.484375 0.1875 0.96875 0.296875q0.5 0.09375 0.9375 0.09375q0.5625 0 1.0625 -0.171875q0.5 -0.171875 0.890625 -0.578125q0.390625 -0.421875 0.609375 -1.09375q0.234375 -0.6875 0.234375 -1.703125zm11.179169 4.40625q-0.625 0.234375 -1.296875 0.34375q-0.65625 0.125 -1.359375 0.125q-2.21875 0 -3.40625 -1.1875q-1.1875 -1.203125 -1.1875 -3.5q0 -1.109375 0.34375 -2.0q0.34375 -0.90625 0.953125 -1.546875q0.625 -0.640625 1.484375 -0.984375q0.875 -0.34375 1.90625 -0.34375q0.734375 0 1.359375 0.109375q0.625 0.09375 1.203125 0.3125l0 1.546875q-0.59375 -0.3125 -1.234375 -0.453125q-0.625 -0.15625 -1.28125 -0.15625q-0.625 0 -1.1875 0.25q-0.546875 0.234375 -0.96875 0.6875q-0.40625 0.4375 -0.65625 1.078125q-0.234375 0.640625 -0.234375 1.4375q0 1.6875 0.8125 2.53125q0.828125 0.84375 2.28125 0.84375q0.65625 0 1.265625 -0.140625q0.625 -0.15625 1.203125 -0.453125l0 1.5z" fill-rule="nonzero"></path><path fill="#cfe2f3" d="m202.13387 475.67715l221.82677 0l0 59.527557l-221.82677 0z" fill-rule="nonzero"></path><path stroke="#000000" stroke-width="2.0" stroke-linejoin="round" stroke-linecap="butt" d="m202.13387 475.67715l221.82677 0l0 59.527557l-221.82677 0z" fill-rule="nonzero"></path><path fill="#000000" d="m216.49324 512.36096l-5.28125 -13.5937805l1.953125 0l3.53125 9.875q0.4375 1.1875 0.71875 2.21875q0.3125 -1.109375 0.734375 -2.21875l3.671875 -9.875l1.84375 0l-5.328125 13.5937805l-1.84375 0zm8.646698 0l0 -13.5937805l9.171875 0l0 1.59375l-7.375 0l0 4.21875l6.375 0l0 1.609375l-6.375 0l0 6.1719055l-1.796875 0zm10.692856 -4.3750305l1.6875 -0.140625q0.125 1.015625 0.5625 1.671875q0.4375 0.65625 1.359375 1.0625q0.9375 0.40625 2.09375 0.40625q1.03125 0 1.8125 -0.3125q0.796875 -0.3125 1.1875 -0.84375q0.390625 -0.53125 0.390625 -1.15625q0 -0.640625 -0.375 -1.109375q-0.375 -0.484375 -1.234375 -0.8125q-0.546875 -0.21875 -2.421875 -0.65625q-1.875 -0.453125 -2.625 -0.859375q-0.96875 -0.515625 -1.453125 -1.265625q-0.46875 -0.75 -0.46875 -1.6875q0 -1.03125 0.578125 -1.921875q0.59375 -0.90625 1.703125 -1.359375q1.125 -0.46875 2.5 -0.46875q1.515625 0 2.671875 0.484375q1.15625 0.484375 1.765625 1.4375q0.625 0.9375 0.671875 2.140625l-1.71875 0.125q-0.140625 -1.28125 -0.953125 -1.9375q-0.796875 -0.671875 -2.359375 -0.671875q-1.625 0 -2.375 0.609375q-0.75 0.59375 -0.75 1.4375q0 0.734375 0.53125 1.203125q0.515625 0.46875 2.703125 0.96875q2.203125 0.5 3.015625 0.875q1.1875 0.546875 1.75 1.390625q0.578125 0.828125 0.578125 1.921875q0 1.09375 -0.625 2.0625q-0.625 0.953125 -1.796875 1.4844055q-1.15625 0.53125 -2.609375 0.53125q-1.84375 0 -3.09375 -0.53125q-1.25 -0.5469055 -1.96875 -1.6250305q-0.703125 -1.078125 -0.734375 -2.453125z" fill-rule="nonzero"></path><path fill="#cfe2f3" d="m582.2047 380.4685l211.24408 0l0 44.81891l-211.24408 0z" fill-rule="nonzero"></path><path stroke="#000000" stroke-width="2.0" stroke-linejoin="round" stroke-linecap="butt" d="m582.2047 380.4685l211.24408 0l0 44.81891l-211.24408 0z" fill-rule="nonzero"></path><path fill="#000000" d="m741.34985 401.79794q0.265625 0.328125 0.40625 0.765625q0.140625 0.421875 0.140625 0.921875q0 0.734375 -0.265625 1.328125q-0.265625 0.59375 -0.75 1.03125q-0.46875 0.421875 -1.140625 0.65625q-0.671875 0.234375 -1.484375 0.234375q-0.578125 0 -1.09375 -0.125q-0.515625 -0.125 -0.8125 -0.3125q-0.171875 0.265625 -0.296875 0.5q-0.109375 0.21875 -0.109375 0.515625q0 0.34375 0.328125 0.578125q0.34375 0.234375 0.90625 0.25l2.4375 0.09375q0.703125 0.015625 1.28125 0.1875q0.59375 0.15625 1.015625 0.453125q0.421875 0.296875 0.65625 0.734375q0.25 0.421875 0.25 1.0q0 0.625 -0.28125 1.171875q-0.265625 0.5625 -0.828125 0.984375q-0.5625 0.421875 -1.421875 0.671875q-0.859375 0.25 -2.046875 0.25q-1.140625 0 -1.9375 -0.1875q-0.78125 -0.171875 -1.296875 -0.5q-0.5 -0.3125 -0.734375 -0.75q-0.234375 -0.4375 -0.234375 -0.96875q0 -0.671875 0.3125 -1.1875q0.3125 -0.515625 0.96875 -0.984375q-0.234375 -0.109375 -0.421875 -0.265625q-0.171875 -0.171875 -0.28125 -0.375q-0.109375 -0.203125 -0.171875 -0.421875q-0.046875 -0.21875 -0.046875 -0.4375q0 -0.609375 0.28125 -1.109375q0.28125 -0.5 0.671875 -0.9375q-0.171875 -0.21875 -0.3125 -0.421875q-0.125 -0.203125 -0.234375 -0.4375q-0.09375 -0.234375 -0.140625 -0.5q-0.046875 -0.28125 -0.046875 -0.640625q0 -0.71875 0.25 -1.3125q0.265625 -0.609375 0.75 -1.03125q0.484375 -0.4375 1.15625 -0.671875q0.671875 -0.234375 1.484375 -0.234375q0.34375 0 0.65625 0.046875q0.3125 0.046875 0.5625 0.125l3.375 0l0 1.3125l-1.5 0zm-5.59375 9.34375q0 0.65625 0.6875 0.953125q0.6875 0.3125 1.90625 0.3125q0.765625 0 1.28125 -0.140625q0.53125 -0.140625 0.84375 -0.375q0.328125 -0.21875 0.46875 -0.515625q0.140625 -0.28125 0.140625 -0.59375q0 -0.5625 -0.46875 -0.84375q-0.453125 -0.265625 -1.40625 -0.3125l-2.4375 -0.078125q-0.3125 0.203125 -0.515625 0.390625q-0.1875 0.203125 -0.296875 0.40625q-0.109375 0.203125 -0.15625 0.390625q-0.046875 0.203125 -0.046875 0.40625zm0.484375 -7.609375q0 0.4375 0.140625 0.8125q0.15625 0.375 0.421875 0.640625q0.28125 0.25 0.640625 0.390625q0.359375 0.140625 0.8125 0.140625q0.484375 0 0.859375 -0.15625q0.375 -0.171875 0.625 -0.4375q0.265625 -0.28125 0.390625 -0.640625q0.140625 -0.359375 0.140625 -0.75q0 -0.453125 -0.15625 -0.8125q-0.140625 -0.375 -0.421875 -0.640625q-0.265625 -0.265625 -0.640625 -0.40625q-0.359375 -0.140625 -0.796875 -0.140625q-0.484375 0 -0.859375 0.171875q-0.375 0.15625 -0.640625 0.4375q-0.25 0.265625 -0.390625 0.640625q-0.125 0.359375 -0.125 0.75zm11.835388 -5.515625l-2.75 0l0 -1.328125l4.390625 0l0 11.765625l2.765625 0l0 1.34375l-7.46875 0l0 -1.34375l3.0625 0l0 -10.4375zm10.257324 3.796875l-2.75 0l0 -1.328125l4.390625 0l0 7.96875l2.765625 0l0 1.34375l-7.46875 0l0 -1.34375l3.0625 0l0 -6.640625zm0.5625 -5.234375q0.28125 0 0.5 0.09375q0.234375 0.09375 0.40625 0.28125q0.171875 0.171875 0.265625 0.40625q0.109375 0.21875 0.109375 0.484375q0 0.265625 -0.109375 0.5q-0.09375 0.234375 -0.265625 0.40625q-0.171875 0.171875 -0.40625 0.28125q-0.21875 0.09375 -0.5 0.09375q-0.265625 0 -0.5 -0.09375q-0.234375 -0.109375 -0.40625 -0.28125q-0.171875 -0.171875 -0.265625 -0.40625q-0.09375 -0.234375 -0.09375 -0.5q0 -0.265625 0.09375 -0.484375q0.09375 -0.234375 0.265625 -0.40625q0.171875 -0.1875 0.40625 -0.28125q0.234375 -0.09375 0.5 -0.09375zm14.476013 8.390625q0 1.15625 -0.328125 2.078125q-0.3125 0.90625 -0.90625 1.546875q-0.578125 0.640625 -1.421875 0.984375q-0.84375 0.328125 -1.90625 0.328125q-0.828125 0 -1.6875 -0.15625q-0.859375 -0.15625 -1.703125 -0.5l0 -12.5625l1.609375 0l0 3.609375l-0.0625 1.71875q0.6875 -0.9375 1.484375 -1.3125q0.796875 -0.390625 1.703125 -0.390625q0.796875 0 1.390625 0.34375q0.609375 0.328125 1.015625 0.9375q0.40625 0.609375 0.609375 1.46875q0.203125 0.859375 0.203125 1.90625zm-1.640625 0.078125q0 -0.734375 -0.109375 -1.34375q-0.109375 -0.609375 -0.34375 -1.046875q-0.234375 -0.4375 -0.59375 -0.6875q-0.359375 -0.25 -0.859375 -0.25q-0.3125 0 -0.625 0.109375q-0.3125 0.09375 -0.65625 0.328125q-0.328125 0.21875 -0.703125 0.59375q-0.375 0.375 -0.8125 0.9375l0 4.515625q0.484375 0.1875 0.96875 0.296875q0.5 0.09375 0.9375 0.09375q0.5625 0 1.0625 -0.171875q0.5 -0.171875 0.890625 -0.578125q0.390625 -0.421875 0.609375 -1.09375q0.234375 -0.6875 0.234375 -1.703125zm11.179199 4.40625q-0.625 0.234375 -1.296875 0.34375q-0.65625 0.125 -1.359375 0.125q-2.21875 0 -3.40625 -1.1875q-1.1875 -1.203125 -1.1875 -3.5q0 -1.109375 0.34375 -2.0q0.34375 -0.90625 0.953125 -1.546875q0.625 -0.640625 1.484375 -0.984375q0.875 -0.34375 1.90625 -0.34375q0.734375 0 1.359375 0.109375q0.625 0.09375 1.203125 0.3125l0 1.546875q-0.59375 -0.3125 -1.234375 -0.453125q-0.625 -0.15625 -1.28125 -0.15625q-0.625 0 -1.1875 0.25q-0.546875 0.234375 -0.96875 0.6875q-0.40625 0.4375 -0.65625 1.078125q-0.234375 0.640625 -0.234375 1.4375q0 1.6875 0.8125 2.53125q0.828125 0.84375 2.28125 0.84375q0.65625 0 1.265625 -0.140625q0.625 -0.15625 1.203125 -0.453125l0 1.5z" fill-rule="nonzero"></path><path fill="#000000" fill-opacity="0.0" d="m167.44357 161.59926l0 0c0 -22.831131 18.508286 -41.339417 41.3394 -41.339417l205.13222 0c10.963898 0 21.47873 4.3553925 29.231354 12.108032c7.752655 7.75264 12.108063 18.267487 12.108063 29.231384l0 165.35268c0 22.831116 -18.5083 41.339417 -41.339417 41.339417l-205.13222 0c-22.831116 0 -41.3394 -18.5083 -41.3394 -41.339417z" fill-rule="nonzero"></path><path stroke="#000000" stroke-width="2.0" stroke-linejoin="round" stroke-linecap="butt" stroke-dasharray="2.0,6.0" d="m167.44357 161.59926l0 0c0 -22.831131 18.508286 -41.339417 41.3394 -41.339417l205.13222 0c10.963898 0 21.47873 4.3553925 29.231354 12.108032c7.752655 7.75264 12.108063 18.267487 12.108063 29.231384l0 165.35268c0 22.831116 -18.5083 41.339417 -41.339417 41.339417l-205.13222 0c-22.831116 0 -41.3394 -18.5083 -41.3394 -41.339417z" fill-rule="nonzero"></path><path fill="#cfe2f3" d="m582.2047 291.1063l211.24408 0l0 43.84253l-211.24408 0z" fill-rule="nonzero"></path><path stroke="#000000" stroke-width="2.0" stroke-linejoin="round" stroke-linecap="butt" d="m582.2047 291.1063l211.24408 0l0 43.84253l-211.24408 0z" fill-rule="nonzero"></path><path fill="#000000" d="m717.304 308.16632l-2.75 0l0 -1.328125l4.390625 0l0 11.765625l2.765625 0l0 1.34375l-7.46875 0l0 -1.34375l3.0625 0l0 -10.4375zm10.257263 3.796875l-2.75 0l0 -1.328125l4.390625 0l0 7.96875l2.765625 0l0 1.34375l-7.46875 0l0 -1.34375l3.0625 0l0 -6.640625zm0.5625 -5.234375q0.28125 0 0.5 0.09375q0.234375 0.09375 0.40625 0.28125q0.171875 0.171875 0.265625 0.40625q0.109375 0.21875 0.109375 0.484375q0 0.265625 -0.109375 0.5q-0.09375 0.234375 -0.265625 0.40625q-0.171875 0.171875 -0.40625 0.28125q-0.21875 0.09375 -0.5 0.09375q-0.265625 0 -0.5 -0.09375q-0.234375 -0.109375 -0.40625 -0.28125q-0.171875 -0.171875 -0.265625 -0.40625q-0.09375 -0.234375 -0.09375 -0.5q0 -0.265625 0.09375 -0.484375q0.09375 -0.234375 0.265625 -0.40625q0.171875 -0.1875 0.40625 -0.28125q0.234375 -0.09375 0.5 -0.09375zm14.476074 8.390625q0 1.15625 -0.328125 2.078125q-0.3125 0.90625 -0.90625 1.546875q-0.578125 0.640625 -1.421875 0.984375q-0.84375 0.328125 -1.90625 0.328125q-0.828125 0 -1.6875 -0.15625q-0.859375 -0.15625 -1.703125 -0.5l0 -12.5625l1.609375 0l0 3.609375l-0.0625 1.71875q0.6875 -0.9375 1.484375 -1.3125q0.796875 -0.390625 1.703125 -0.390625q0.796875 0 1.390625 0.34375q0.609375 0.328125 1.015625 0.9375q0.40625 0.609375 0.609375 1.46875q0.203125 0.859375 0.203125 1.90625zm-1.640625 0.078125q0 -0.734375 -0.109375 -1.34375q-0.109375 -0.609375 -0.34375 -1.046875q-0.234375 -0.4375 -0.59375 -0.6875q-0.359375 -0.25 -0.859375 -0.25q-0.3125 0 -0.625 0.109375q-0.3125 0.09375 -0.65625 0.328125q-0.328125 0.21875 -0.703125 0.59375q-0.375 0.375 -0.8125 0.9375l0 4.515625q0.484375 0.1875 0.96875 0.296875q0.5 0.09375 0.9375 0.09375q0.5625 0 1.0625 -0.171875q0.5 -0.171875 0.890625 -0.578125q0.390625 -0.421875 0.609375 -1.09375q0.234375 -0.6875 0.234375 -1.703125zm12.210388 -6.859375q-1.265625 -0.265625 -2.1875 -0.265625q-2.1875 0 -2.1875 2.28125l0 1.640625l4.09375 0l0 1.34375l-4.09375 0l0 6.609375l-1.640625 0l0 -6.609375l-2.984375 0l0 -1.34375l2.984375 0l0 -1.546875q0 -3.71875 3.875 -3.71875q0.96875 0 2.140625 0.21875l0 1.390625zm-9.75 2.296875l0 0zm19.226074 9.3125l-1.4375 0l-0.0625 -1.5q-0.421875 0.484375 -0.796875 0.8125q-0.375 0.3125 -0.75 0.515625q-0.359375 0.1875 -0.734375 0.265625q-0.375 0.078125 -0.796875 0.078125q-1.4375 0 -2.171875 -0.84375q-0.734375 -0.84375 -0.734375 -2.5625l0 -6.078125l1.609375 0l0 5.953125q0 2.140625 1.625 2.140625q0.296875 0 0.578125 -0.078125q0.28125 -0.09375 0.59375 -0.3125q0.3125 -0.21875 0.65625 -0.578125q0.359375 -0.375 0.8125 -0.953125l0 -6.171875l1.609375 0l0 9.3125zm10.147888 -2.546875q0 0.5 -0.171875 0.890625q-0.15625 0.390625 -0.453125 0.6875q-0.28125 0.296875 -0.671875 0.515625q-0.375 0.21875 -0.8125 0.359375q-0.421875 0.125 -0.875 0.1875q-0.453125 0.078125 -0.890625 0.078125q-0.953125 0 -1.75 -0.09375q-0.78125 -0.078125 -1.546875 -0.265625l0 -1.484375q0.8125 0.234375 1.625 0.359375q0.8125 0.109375 1.609375 0.109375q1.15625 0 1.703125 -0.3125q0.5625 -0.3125 0.5625 -0.890625q0 -0.25 -0.09375 -0.453125q-0.078125 -0.203125 -0.3125 -0.375q-0.234375 -0.1875 -0.71875 -0.375q-0.484375 -0.203125 -1.328125 -0.453125q-0.640625 -0.1875 -1.171875 -0.421875q-0.53125 -0.234375 -0.921875 -0.5625q-0.390625 -0.328125 -0.609375 -0.765625q-0.21875 -0.4375 -0.21875 -1.03125q0 -0.390625 0.171875 -0.84375q0.1875 -0.46875 0.625 -0.859375q0.4375 -0.40625 1.171875 -0.671875q0.75 -0.265625 1.859375 -0.265625q0.546875 0 1.21875 0.0625q0.671875 0.0625 1.390625 0.203125l0 1.4375q-0.765625 -0.171875 -1.453125 -0.265625q-0.671875 -0.09375 -1.171875 -0.09375q-0.609375 0 -1.03125 0.09375q-0.40625 0.09375 -0.65625 0.265625q-0.25 0.15625 -0.375 0.375q-0.109375 0.21875 -0.109375 0.46875q0 0.25 0.09375 0.453125q0.109375 0.203125 0.375 0.390625q0.265625 0.1875 0.734375 0.390625q0.46875 0.1875 1.234375 0.40625q0.828125 0.234375 1.390625 0.5q0.5625 0.265625 0.90625 0.59375q0.359375 0.328125 0.515625 0.734375q0.15625 0.40625 0.15625 0.921875zm10.757324 -2.609375q0 0.34375 -0.015625 0.578125q-0.015625 0.234375 -0.03125 0.4375l-6.53125 0q0 1.4375 0.796875 2.203125q0.796875 0.765625 2.296875 0.765625q0.40625 0 0.8125 -0.03125q0.40625 -0.046875 0.78125 -0.09375q0.390625 -0.0625 0.734375 -0.125q0.34375 -0.078125 0.640625 -0.15625l0 1.328125q-0.65625 0.1875 -1.484375 0.296875q-0.828125 0.125 -1.71875 0.125q-1.203125 0 -2.0625 -0.328125q-0.859375 -0.328125 -1.421875 -0.9375q-0.546875 -0.625 -0.8125 -1.515625q-0.265625 -0.890625 -0.265625 -2.03125q0 -0.984375 0.28125 -1.859375q0.296875 -0.875 0.828125 -1.53125q0.546875 -0.671875 1.328125 -1.0625q0.796875 -0.390625 1.796875 -0.390625q0.984375 0 1.734375 0.3125q0.75 0.296875 1.265625 0.859375q0.515625 0.5625 0.78125 1.375q0.265625 0.796875 0.265625 1.78125zm-1.6875 -0.21875q0.03125 -0.625 -0.125 -1.140625q-0.140625 -0.515625 -0.453125 -0.890625q-0.3125 -0.375 -0.78125 -0.578125q-0.453125 -0.203125 -1.078125 -0.203125q-0.515625 0 -0.953125 0.203125q-0.4375 0.203125 -0.765625 0.578125q-0.3125 0.359375 -0.5 0.890625q-0.1875 0.515625 -0.234375 1.140625l4.890625 0z" fill-rule="nonzero"></path><path fill="#cfe2f3" d="m576.6457 36.322834l214.2362 0l0 63.77953l-214.2362 0z" fill-rule="nonzero"></path><path stroke="#000000" stroke-width="2.0" stroke-linejoin="round" stroke-linecap="butt" d="m576.6457 36.322834l214.2362 0l0 63.77953l-214.2362 0z" fill-rule="nonzero"></path><path fill="#000000" d="m688.29333 75.0076q-0.546875 0.140625 -1.125 0.1875q-0.578125 0.0625 -1.1875 0.0625q-1.75 0 -2.625 -0.78125q-0.859375 -0.796875 -0.859375 -2.4375l0 -4.859375l-2.609375 0l0 -1.359375l2.609375 0l0 -2.5625038l1.625 -0.421875l0 2.9843788l4.171875 0l0 1.359375l-4.171875 0l0 4.71875q0 1.0 0.53125 1.5q0.53125 0.5 1.5625 0.5q0.453125 0 0.984375 -0.0625q0.53125 -0.078125 1.09375 -0.21875l0 1.390625zm10.632263 -5.03125q0 0.34375 -0.015625 0.578125q-0.015625 0.234375 -0.03125 0.4375l-6.53125 0q0 1.4375 0.796875 2.203125q0.796875 0.765625 2.296875 0.765625q0.40625 0 0.8125 -0.03125q0.40625 -0.046875 0.78125 -0.09375q0.390625 -0.0625 0.734375 -0.125q0.34375 -0.078125 0.640625 -0.15625l0 1.328125q-0.65625 0.1875 -1.484375 0.296875q-0.828125 0.125 -1.71875 0.125q-1.203125 0 -2.0625 -0.328125q-0.859375 -0.328125 -1.421875 -0.9375q-0.546875 -0.625 -0.8125 -1.515625q-0.265625 -0.890625 -0.265625 -2.03125q0 -0.984375 0.28125 -1.859375q0.296875 -0.875 0.828125 -1.53125q0.546875 -0.671875 1.328125 -1.0625q0.796875 -0.390625 1.796875 -0.390625q0.984375 0 1.734375 0.3125q0.75 0.296875 1.265625 0.859375q0.515625 0.5625 0.78125 1.375q0.265625 0.796875 0.265625 1.78125zm-1.6875 -0.21875q0.03125 -0.625 -0.125 -1.140625q-0.140625 -0.515625 -0.453125 -0.890625q-0.3125 -0.375 -0.78125 -0.578125q-0.453125 -0.203125 -1.078125 -0.203125q-0.515625 0 -0.953125 0.203125q-0.4375 0.203125 -0.765625 0.578125q-0.3125 0.359375 -0.5 0.890625q-0.1875 0.515625 -0.234375 1.140625l4.890625 0zm11.444824 2.828125q0 0.5 -0.171875 0.890625q-0.15625 0.390625 -0.453125 0.6875q-0.28125 0.296875 -0.671875 0.515625q-0.375 0.21875 -0.8125 0.359375q-0.421875 0.125 -0.875 0.1875q-0.453125 0.078125 -0.890625 0.078125q-0.953125 0 -1.75 -0.09375q-0.78125 -0.078125 -1.546875 -0.265625l0 -1.484375q0.8125 0.234375 1.625 0.359375q0.8125 0.109375 1.609375 0.109375q1.15625 0 1.703125 -0.3125q0.5625 -0.3125 0.5625 -0.890625q0 -0.25 -0.09375 -0.453125q-0.078125 -0.203125 -0.3125 -0.375q-0.234375 -0.1875 -0.71875 -0.375q-0.484375 -0.203125 -1.328125 -0.453125q-0.640625 -0.1875 -1.171875 -0.421875q-0.53125 -0.234375 -0.921875 -0.5625q-0.390625 -0.328125 -0.609375 -0.765625q-0.21875 -0.4375 -0.21875 -1.03125q0 -0.390625 0.171875 -0.84375q0.1875 -0.46875 0.625 -0.859375q0.4375 -0.40625 1.171875 -0.671875q0.75 -0.265625 1.859375 -0.265625q0.546875 0 1.21875 0.0625q0.671875 0.0625 1.390625 0.203125l0 1.4375q-0.765625 -0.171875 -1.453125 -0.265625q-0.671875 -0.09375 -1.171875 -0.09375q-0.609375 0 -1.03125 0.09375q-0.40625 0.09375 -0.65625 0.265625q-0.25 0.15625 -0.375 0.375q-0.109375 0.21875 -0.109375 0.46875q0 0.25 0.09375 0.453125q0.109375 0.203125 0.375 0.390625q0.265625 0.1875 0.734375 0.390625q0.46875 0.1875 1.234375 0.40625q0.828125 0.234375 1.390625 0.5q0.5625 0.265625 0.90625 0.59375q0.359375 0.328125 0.515625 0.734375q0.15625 0.40625 0.15625 0.921875zm10.382263 2.421875q-0.546875 0.140625 -1.125 0.1875q-0.578125 0.0625 -1.1875 0.0625q-1.75 0 -2.625 -0.78125q-0.859375 -0.796875 -0.859375 -2.4375l0 -4.859375l-2.609375 0l0 -1.359375l2.609375 0l0 -2.5625038l1.625 -0.421875l0 2.9843788l4.171875 0l0 1.359375l-4.171875 0l0 4.71875q0 1.0 0.53125 1.5q0.53125 0.5 1.5625 0.5q0.453125 0 0.984375 -0.0625q0.53125 -0.078125 1.09375 -0.21875l0 1.390625zm11.022949 -11.484379q-1.265625 -0.265625 -2.1875 -0.265625q-2.1875 0 -2.1875 2.2812538l0 1.640625l4.09375 0l0 1.34375l-4.09375 0l0 6.609375l-1.640625 0l0 -6.609375l-2.984375 0l0 -1.34375l2.984375 0l0 -1.546875q0 -3.7187538 3.875 -3.7187538q0.96875 0 2.140625 0.21875l0 1.390625zm-9.75 2.2968788l0 0zm19.116638 6.765625q0 0.5 -0.171875 0.890625q-0.15625 0.390625 -0.453125 0.6875q-0.28125 0.296875 -0.671875 0.515625q-0.375 0.21875 -0.8125 0.359375q-0.421875 0.125 -0.875 0.1875q-0.453125 0.078125 -0.890625 0.078125q-0.953125 0 -1.75 -0.09375q-0.78125 -0.078125 -1.546875 -0.265625l0 -1.484375q0.8125 0.234375 1.625 0.359375q0.8125 0.109375 1.609375 0.109375q1.15625 0 1.703125 -0.3125q0.5625 -0.3125 0.5625 -0.890625q0 -0.25 -0.09375 -0.453125q-0.078125 -0.203125 -0.3125 -0.375q-0.234375 -0.1875 -0.71875 -0.375q-0.484375 -0.203125 -1.328125 -0.453125q-0.640625 -0.1875 -1.171875 -0.421875q-0.53125 -0.234375 -0.921875 -0.5625q-0.390625 -0.328125 -0.609375 -0.765625q-0.21875 -0.4375 -0.21875 -1.03125q0 -0.390625 0.171875 -0.84375q0.1875 -0.46875 0.625 -0.859375q0.4375 -0.40625 1.171875 -0.671875q0.75 -0.265625 1.859375 -0.265625q0.546875 0 1.21875 0.0625q0.671875 0.0625 1.390625 0.203125l0 1.4375q-0.765625 -0.171875 -1.453125 -0.265625q-0.671875 -0.09375 -1.171875 -0.09375q-0.609375 0 -1.03125 0.09375q-0.40625 0.09375 -0.65625 0.265625q-0.25 0.15625 -0.375 0.375q-0.109375 0.21875 -0.109375 0.46875q0 0.25 0.09375 0.453125q0.109375 0.203125 0.375 0.390625q0.265625 0.1875 0.734375 0.390625q0.46875 0.1875 1.234375 0.40625q0.828125 0.234375 1.390625 0.5q0.5625 0.265625 0.90625 0.59375q0.359375 0.328125 0.515625 0.734375q0.15625 0.40625 0.15625 0.921875zm6.554199 -0.375q0.3125 0 0.59375 0.125q0.28125 0.109375 0.484375 0.328125q0.21875 0.21875 0.328125 0.5q0.125 0.28125 0.125 0.609375q0 0.3125 -0.125 0.59375q-0.109375 0.28125 -0.328125 0.484375q-0.203125 0.203125 -0.484375 0.328125q-0.28125 0.125 -0.59375 0.125q-0.328125 0 -0.609375 -0.125q-0.28125 -0.125 -0.5 -0.328125q-0.203125 -0.203125 -0.328125 -0.484375q-0.109375 -0.28125 -0.109375 -0.59375q0 -0.328125 0.109375 -0.609375q0.125 -0.28125 0.328125 -0.5q0.21875 -0.21875 0.5 -0.328125q0.28125 -0.125 0.609375 -0.125zm9.757263 -5.0625l-2.75 0l0 -1.328125l4.390625 0l0 7.96875l2.765625 0l0 1.34375l-7.46875 0l0 -1.34375l3.0625 0l0 -6.640625zm0.5625 -5.234379q0.28125 0 0.5 0.09375q0.234375 0.09375 0.40625 0.28125q0.171875 0.171875 0.265625 0.40625q0.109375 0.21875 0.109375 0.484375q0 0.265625 -0.109375 0.5q-0.09375 0.234375 -0.265625 0.4062538q-0.171875 0.171875 -0.40625 0.28125q-0.21875 0.09375 -0.5 0.09375q-0.265625 0 -0.5 -0.09375q-0.234375 -0.109375 -0.40625 -0.28125q-0.171875 -0.17187881 -0.265625 -0.4062538q-0.09375 -0.234375 -0.09375 -0.5q0 -0.265625 0.09375 -0.484375q0.09375 -0.234375 0.265625 -0.40625q0.171875 -0.1875 0.40625 -0.28125q0.234375 -0.09375 0.5 -0.09375zm13.163574 13.218754l0 -6.6875q0 -0.4375 -0.03125 -0.71875q-0.03125 -0.28125 -0.109375 -0.4375q-0.0625 -0.15625 -0.171875 -0.21875q-0.109375 -0.078125 -0.265625 -0.078125q-0.1875 0 -0.34375 0.125q-0.15625 0.109375 -0.34375 0.359375q-0.171875 0.25 -0.390625 0.65625q-0.21875 0.40625 -0.515625 1.015625l0 5.984375l-1.46875 0l0 -6.515625q0 -0.5 -0.03125 -0.8125q-0.03125 -0.328125 -0.109375 -0.5q-0.0625 -0.171875 -0.1875 -0.234375q-0.109375 -0.078125 -0.265625 -0.078125q-0.15625 0 -0.3125 0.09375q-0.140625 0.09375 -0.328125 0.34375q-0.171875 0.234375 -0.40625 0.65625q-0.21875 0.40625 -0.53125 1.0625l0 5.984375l-1.484375 0l0 -9.3125l1.234375 0l0.078125 1.765625q0.25 -0.53125 0.46875 -0.890625q0.234375 -0.375 0.46875 -0.59375q0.25 -0.234375 0.515625 -0.34375q0.28125 -0.109375 0.609375 -0.109375q0.75 0 1.140625 0.5q0.390625 0.484375 0.390625 1.515625q0.21875 -0.484375 0.4375 -0.859375q0.21875 -0.375 0.453125 -0.625q0.25 -0.265625 0.546875 -0.390625q0.296875 -0.140625 0.6875 -0.140625q1.75 0 1.75 2.703125l0 6.78125l-1.484375 0zm10.319763 -8.0q0.265625 0.328125 0.40625 0.765625q0.140625 0.421875 0.140625 0.921875q0 0.734375 -0.265625 1.328125q-0.265625 0.59375 -0.75 1.03125q-0.46875 0.421875 -1.140625 0.65625q-0.671875 0.234375 -1.484375 0.234375q-0.578125 0 -1.09375 -0.125q-0.515625 -0.125 -0.8125 -0.3125q-0.171875 0.265625 -0.296875 0.5q-0.109375 0.21875 -0.109375 0.515625q0 0.34375 0.328125 0.578125q0.34375 0.234375 0.90625 0.25l2.4375 0.09375q0.703125 0.015625 1.28125 0.1875q0.59375 0.15625 1.015625 0.453125q0.421875 0.296875 0.65625 0.734375q0.25 0.421875 0.25 1.0q0 0.625 -0.28125 1.171875q-0.265625 0.5625 -0.828125 0.984375q-0.5625 0.421875 -1.421875 0.671875q-0.859375 0.25 -2.046875 0.25q-1.140625 0 -1.9375 -0.1875q-0.78125 -0.171875 -1.296875 -0.5q-0.5 -0.3125 -0.734375 -0.75q-0.234375 -0.4375 -0.234375 -0.96875q0 -0.671875 0.3125 -1.1875q0.3125 -0.515625 0.96875 -0.984375q-0.234375 -0.109375 -0.421875 -0.265625q-0.171875 -0.171875 -0.28125 -0.375q-0.109375 -0.203125 -0.171875 -0.421875q-0.046875 -0.21875 -0.046875 -0.4375q0 -0.609375 0.28125 -1.109375q0.28125 -0.5 0.671875 -0.9375q-0.171875 -0.21875 -0.3125 -0.421875q-0.125 -0.203125 -0.234375 -0.4375q-0.09375 -0.234375 -0.140625 -0.5q-0.046875 -0.28125 -0.046875 -0.640625q0 -0.71875 0.25 -1.3125q0.265625 -0.609375 0.75 -1.03125q0.484375 -0.4375 1.15625 -0.671875q0.671875 -0.234375 1.484375 -0.234375q0.34375 0 0.65625 0.046875q0.3125 0.046875 0.5625 0.125l3.375 0l0 1.3125l-1.5 0zm-5.59375 9.34375q0 0.65625 0.6875 0.953125q0.6875 0.3125 1.90625 0.3125q0.765625 0 1.28125 -0.140625q0.53125 -0.140625 0.84375 -0.375q0.328125 -0.21875 0.46875 -0.515625q0.140625 -0.28125 0.140625 -0.59375q0 -0.5625 -0.46875 -0.84375q-0.453125 -0.265625 -1.40625 -0.3125l-2.4375 -0.078125q-0.3125 0.203125 -0.515625 0.390625q-0.1875 0.203125 -0.296875 0.40625q-0.109375 0.203125 -0.15625 0.390625q-0.046875 0.203125 -0.046875 0.40625zm0.484375 -7.609375q0 0.4375 0.140625 0.8125q0.15625 0.375 0.421875 0.640625q0.28125 0.25 0.640625 0.390625q0.359375 0.140625 0.8125 0.140625q0.484375 0 0.859375 -0.15625q0.375 -0.171875 0.625 -0.4375q0.265625 -0.28125 0.390625 -0.640625q0.140625 -0.359375 0.140625 -0.75q0 -0.453125 -0.15625 -0.8125q-0.140625 -0.375 -0.421875 -0.640625q-0.265625 -0.265625 -0.640625 -0.40625q-0.359375 -0.140625 -0.796875 -0.140625q-0.484375 0 -0.859375 0.171875q-0.375 0.15625 -0.640625 0.4375q-0.25 0.265625 -0.390625 0.640625q-0.125 0.359375 -0.125 0.75z" fill-rule="nonzero"></path><path fill="#cfe2f3" d="m581.1811 215.22717l0 0c0 -4.03566 3.2715454 -7.3072205 7.307251 -7.3072205l199.62177 0c1.9379883 0 3.7966309 0.76986694 5.166992 2.1402283c1.3703613 1.3703766 2.1401978 3.229004 2.1401978 5.166992l0 29.228058c0 4.035675 -3.2715454 7.3072357 -7.30719 7.3072357l-199.62177 0l0 0c-4.0357056 0 -7.307251 -3.2715607 -7.307251 -7.3072357z" fill-rule="nonzero"></path><path stroke="#000000" stroke-width="2.0" stroke-linejoin="round" stroke-linecap="butt" d="m581.1811 215.22717l0 0c0 -4.03566 3.2715454 -7.3072205 7.307251 -7.3072205l199.62177 0c1.9379883 0 3.7966309 0.76986694 5.166992 2.1402283c1.3703613 1.3703766 2.1401978 3.229004 2.1401978 5.166992l0 29.228058c0 4.035675 -3.2715454 7.3072357 -7.30719 7.3072357l-199.62177 0l0 0c-4.0357056 0 -7.307251 -3.2715607 -7.307251 -7.3072357z" fill-rule="nonzero"></path><path fill="#000000" d="m638.16504 236.7612l0 -5.765625l-5.234375 -7.828125l2.1875 0l2.671875 4.09375q0.75 1.15625 1.390625 2.296875q0.609375 -1.0625 1.484375 -2.40625l2.625 -3.984375l2.109375 0l-5.4375 7.828125l0 5.765625l-1.796875 0zm7.7716675 -4.921875q0 -2.734375 1.53125 -4.0625q1.265625 -1.09375 3.09375 -1.09375q2.03125 0 3.3125 1.34375q1.296875 1.328125 1.296875 3.671875q0 1.90625 -0.578125 3.0q-0.5625 1.078125 -1.65625 1.6875q-1.078125 0.59375 -2.375 0.59375q-2.0625 0 -3.34375 -1.328125q-1.28125 -1.328125 -1.28125 -3.8125zm1.71875 0q0 1.890625 0.828125 2.828125q0.828125 0.9375 2.078125 0.9375q1.25 0 2.0625 -0.9375q0.828125 -0.953125 0.828125 -2.890625q0 -1.828125 -0.828125 -2.765625q-0.828125 -0.9375 -2.0625 -0.9375q-1.25 0 -2.078125 0.9375q-0.828125 0.9375 -0.828125 2.828125zm15.735107 4.921875l0 -1.453125q-1.140625 1.671875 -3.125 1.671875q-0.859375 0 -1.625 -0.328125q-0.75 -0.34375 -1.125 -0.84375q-0.359375 -0.5 -0.515625 -1.234375q-0.09375 -0.5 -0.09375 -1.5625l0 -6.109375l1.671875 0l0 5.46875q0 1.3125 0.09375 1.765625q0.15625 0.65625 0.671875 1.03125q0.515625 0.375 1.265625 0.375q0.75 0 1.40625 -0.375q0.65625 -0.390625 0.921875 -1.046875q0.28125 -0.671875 0.28125 -1.9375l0 -5.28125l1.671875 0l0 9.859375l-1.5 0zm3.9069824 0l0 -9.859375l1.5 0l0 1.5q0.578125 -1.046875 1.0625 -1.375q0.484375 -0.34375 1.078125 -0.34375q0.84375 0 1.71875 0.546875l-0.578125 1.546875q-0.609375 -0.359375 -1.234375 -0.359375q-0.546875 0 -0.984375 0.328125q-0.421875 0.328125 -0.609375 0.90625q-0.28125 0.890625 -0.28125 1.953125l0 5.15625l-1.671875 0zm17.849121 -3.609375l1.640625 0.21875q-0.265625 1.6875 -1.375 2.65625q-1.109375 0.953125 -2.734375 0.953125q-2.015625 0 -3.25 -1.3125q-1.21875 -1.328125 -1.21875 -3.796875q0 -1.59375 0.515625 -2.78125q0.53125 -1.203125 1.609375 -1.796875q1.09375 -0.609375 2.359375 -0.609375q1.609375 0 2.625 0.8125q1.015625 0.8125 1.3125 2.3125l-1.625 0.25q-0.234375 -1.0 -0.828125 -1.5q-0.59375 -0.5 -1.421875 -0.5q-1.265625 0 -2.0625 0.90625q-0.78125 0.90625 -0.78125 2.859375q0 1.984375 0.765625 2.890625q0.765625 0.890625 1.984375 0.890625q0.984375 0 1.640625 -0.59375q0.65625 -0.609375 0.84375 -1.859375zm2.265625 -1.3125q0 -2.734375 1.53125 -4.0625q1.265625 -1.09375 3.09375 -1.09375q2.03125 0 3.3125 1.34375q1.296875 1.328125 1.296875 3.671875q0 1.90625 -0.578125 3.0q-0.5625 1.078125 -1.65625 1.6875q-1.078125 0.59375 -2.375 0.59375q-2.0625 0 -3.34375 -1.328125q-1.28125 -1.328125 -1.28125 -3.8125zm1.71875 0q0 1.890625 0.828125 2.828125q0.828125 0.9375 2.078125 0.9375q1.25 0 2.0625 -0.9375q0.828125 -0.953125 0.828125 -2.890625q0 -1.828125 -0.828125 -2.765625q-0.828125 -0.9375 -2.0625 -0.9375q-1.25 0 -2.078125 0.9375q-0.828125 0.9375 -0.828125 2.828125zm15.672546 4.921875l0 -1.25q-0.9375 1.46875 -2.75 1.46875q-1.171875 0 -2.171875 -0.640625q-0.984375 -0.65625 -1.53125 -1.8125q-0.53125 -1.171875 -0.53125 -2.6875q0 -1.46875 0.484375 -2.671875q0.5 -1.203125 1.46875 -1.84375q0.984375 -0.640625 2.203125 -0.640625q0.890625 0 1.578125 0.375q0.703125 0.375 1.140625 0.984375l0 -4.875l1.65625 0l0 13.59375l-1.546875 0zm-5.28125 -4.921875q0 1.890625 0.796875 2.828125q0.8125 0.9375 1.890625 0.9375q1.09375 0 1.859375 -0.890625q0.765625 -0.890625 0.765625 -2.734375q0 -2.015625 -0.78125 -2.953125q-0.78125 -0.953125 -1.921875 -0.953125q-1.109375 0 -1.859375 0.90625q-0.75 0.90625 -0.75 2.859375zm16.016357 1.75l1.71875 0.21875q-0.40625 1.5 -1.515625 2.34375q-1.09375 0.828125 -2.8125 0.828125q-2.15625 0 -3.421875 -1.328125q-1.265625 -1.328125 -1.265625 -3.734375q0 -2.484375 1.265625 -3.859375q1.28125 -1.375 3.328125 -1.375q1.984375 0 3.234375 1.34375q1.25 1.34375 1.25 3.796875q0 0.140625 -0.015625 0.4375l-7.34375 0q0.09375 1.625 0.921875 2.484375q0.828125 0.859375 2.0625 0.859375q0.90625 0 1.546875 -0.46875q0.65625 -0.484375 1.046875 -1.546875zm-5.484375 -2.703125l5.5 0q-0.109375 -1.234375 -0.625 -1.859375q-0.796875 -0.96875 -2.078125 -0.96875q-1.140625 0 -1.9375 0.78125q-0.78125 0.765625 -0.859375 2.046875zm14.309021 -5.8125l0 -1.90625l1.671875 0l0 1.90625l-1.671875 0zm0 11.6875l0 -9.859375l1.671875 0l0 9.859375l-1.671875 0zm3.4573364 -2.9375l1.65625 -0.265625q0.140625 1.0 0.765625 1.53125q0.640625 0.515625 1.78125 0.515625q1.15625 0 1.703125 -0.46875q0.5625 -0.46875 0.5625 -1.09375q0 -0.5625 -0.484375 -0.890625q-0.34375 -0.21875 -1.703125 -0.5625q-1.84375 -0.46875 -2.5625 -0.796875q-0.703125 -0.34375 -1.078125 -0.9375q-0.359375 -0.609375 -0.359375 -1.328125q0 -0.65625 0.296875 -1.21875q0.3125 -0.5625 0.828125 -0.9375q0.390625 -0.28125 1.0625 -0.484375q0.671875 -0.203125 1.4375 -0.203125q1.171875 0 2.046875 0.34375q0.875 0.328125 1.28125 0.90625q0.421875 0.5625 0.578125 1.515625l-1.625 0.21875q-0.109375 -0.75 -0.65625 -1.171875q-0.53125 -0.4375 -1.5 -0.4375q-1.15625 0 -1.640625 0.390625q-0.484375 0.375 -0.484375 0.875q0 0.328125 0.203125 0.59375q0.203125 0.265625 0.640625 0.4375q0.25 0.09375 1.46875 0.4375q1.765625 0.46875 2.46875 0.765625q0.703125 0.296875 1.09375 0.875q0.40625 0.578125 0.40625 1.4375q0 0.828125 -0.484375 1.578125q-0.484375 0.734375 -1.40625 1.140625q-0.921875 0.390625 -2.078125 0.390625q-1.921875 0 -2.9375 -0.796875q-1.0 -0.796875 -1.28125 -2.359375zm15.183289 2.9375l0 -13.59375l1.671875 0l0 4.875q1.171875 -1.359375 2.953125 -1.359375q1.09375 0 1.890625 0.4375q0.8125 0.421875 1.15625 1.1875q0.359375 0.765625 0.359375 2.203125l0 6.25l-1.671875 0l0 -6.25q0 -1.25 -0.546875 -1.8125q-0.546875 -0.578125 -1.53125 -0.578125q-0.75 0 -1.40625 0.390625q-0.640625 0.375 -0.921875 1.046875q-0.28125 0.65625 -0.28125 1.8125l0 5.390625l-1.671875 0zm17.125732 -3.171875l1.71875 0.21875q-0.40625 1.5 -1.515625 2.34375q-1.09375 0.828125 -2.8125 0.828125q-2.15625 0 -3.421875 -1.328125q-1.265625 -1.328125 -1.265625 -3.734375q0 -2.484375 1.265625 -3.859375q1.28125 -1.375 3.328125 -1.375q1.984375 0 3.234375 1.34375q1.25 1.34375 1.25 3.796875q0 0.140625 -0.015625 0.4375l-7.34375 0q0.09375 1.625 0.921875 2.484375q0.828125 0.859375 2.0625 0.859375q0.90625 0 1.546875 -0.46875q0.65625 -0.484375 1.046875 -1.546875zm-5.484375 -2.703125l5.5 0q-0.109375 -1.234375 -0.625 -1.859375q-0.796875 -0.96875 -2.078125 -0.96875q-1.140625 0 -1.9375 0.78125q-0.78125 0.765625 -0.859375 2.046875zm9.094482 5.875l0 -9.859375l1.5 0l0 1.5q0.578125 -1.046875 1.0625 -1.375q0.484375 -0.34375 1.078125 -0.34375q0.84375 0 1.71875 0.546875l-0.578125 1.546875q-0.609375 -0.359375 -1.234375 -0.359375q-0.546875 0 -0.984375 0.328125q-0.421875 0.328125 -0.609375 0.90625q-0.28125 0.890625 -0.28125 1.953125l0 5.15625l-1.671875 0zm12.9782715 -3.171875l1.71875 0.21875q-0.40625 1.5 -1.515625 2.34375q-1.09375 0.828125 -2.8125 0.828125q-2.15625 0 -3.421875 -1.328125q-1.265625 -1.328125 -1.265625 -3.734375q0 -2.484375 1.265625 -3.859375q1.28125 -1.375 3.328125 -1.375q1.984375 0 3.234375 1.34375q1.25 1.34375 1.25 3.796875q0 0.140625 -0.015625 0.4375l-7.34375 0q0.09375 1.625 0.921875 2.484375q0.828125 0.859375 2.0625 0.859375q0.90625 0 1.546875 -0.46875q0.65625 -0.484375 1.046875 -1.546875zm-5.484375 -2.703125l5.5 0q-0.109375 -1.234375 -0.625 -1.859375q-0.796875 -0.96875 -2.078125 -0.96875q-1.140625 0 -1.9375 0.78125q-0.78125 0.765625 -0.859375 2.046875zm10.000732 2.5l-0.5 -7.203125l0 -3.015625l2.0625 0l0 3.015625l-0.484375 7.203125l-1.078125 0zm-0.4375 3.375l0 -1.90625l1.921875 0l0 1.90625l-1.921875 0z" fill-rule="nonzero"></path><path fill="#000000" fill-opacity="0.0" d="m376.2021 220.24147l1.0078735 371.0551" fill-rule="nonzero"></path><path stroke="#000000" stroke-width="1.0" stroke-linejoin="round" stroke-linecap="butt" d="m376.2021 220.24147l1.0078735 371.0551" fill-rule="nonzero"></path><path fill="#000000" fill-opacity="0.0" d="m375.6509 591.30444l228.78745 0" fill-rule="nonzero"></path><path stroke="#000000" stroke-width="1.0" stroke-linejoin="round" stroke-linecap="butt" d="m375.6509 591.30444l228.78745 0" fill-rule="nonzero"></path><path fill="#000000" fill-opacity="0.0" d="m603.6693 591.31757l-1.543335 -509.3858" fill-rule="nonzero"></path><path stroke="#000000" stroke-width="1.0" stroke-linejoin="round" stroke-linecap="butt" d="m603.6693 591.31757l-1.5251465 -503.38586" fill-rule="evenodd"></path><path fill="#000000" stroke="#000000" stroke-width="1.0" stroke-linecap="butt" d="m603.7959 87.92672l-1.6654663 -4.5330734l-1.6380005 4.5430756z" fill-rule="evenodd"></path><path fill="#000000" fill-opacity="0.0" d="m602.126 81.931755l15.4646 -0.03149414" fill-rule="nonzero"></path><path stroke="#000000" stroke-width="1.0" stroke-linejoin="round" stroke-linecap="butt" d="m602.126 81.931755l15.4646 -0.03149414" fill-rule="nonzero"></path><path fill="#000000" fill-opacity="0.0" d="m617.5853 81.931755l0 523.2756" fill-rule="nonzero"></path><path stroke="#000000" stroke-width="1.0" stroke-linejoin="round" stroke-linecap="butt" d="m617.5853 81.931755l0 523.2756" fill-rule="nonzero"></path><path fill="#000000" fill-opacity="0.0" d="m617.5853 605.21783l-251.21262 0" fill-rule="nonzero"></path><path stroke="#000000" stroke-width="1.0" stroke-linejoin="round" stroke-linecap="butt" d="m617.5853 605.21783l-251.21262 0" fill-rule="nonzero"></path><path fill="#000000" fill-opacity="0.0" d="m366.3727 604.9265l-3.8740234 -395.2126" fill-rule="nonzero"></path><path stroke="#000000" stroke-width="1.0" stroke-linejoin="round" stroke-linecap="butt" d="m366.3727 604.9265l-3.815216 -389.2129" fill-rule="evenodd"></path><path fill="#000000" stroke="#000000" stroke-width="1.0" stroke-linecap="butt" d="m364.20914 215.69745l-1.696106 -4.5216827l-1.6071777 4.554062z" fill-rule="evenodd"></path><path fill="#000000" fill-opacity="0.0" d="m539.8583 165.12038l0 0c0 -26.492798 21.476624 -47.96946 47.969482 -47.96946l191.87207 0l0 0c12.72229 0 24.923523 5.0539093 33.919556 14.049934c8.995972 8.996017 14.049927 21.197235 14.049927 33.919525l0 221.00597c0 26.492798 -21.476685 47.96945 -47.969482 47.96945l-191.87207 0c-26.492859 0 -47.969482 -21.476654 -47.969482 -47.96945z" fill-rule="nonzero"></path><path stroke="#000000" stroke-width="2.0" stroke-linejoin="round" stroke-linecap="butt" stroke-dasharray="2.0,6.0" d="m539.8583 165.12038l0 0c0 -26.492798 21.476624 -47.96946 47.969482 -47.96946l191.87207 0l0 0c12.72229 0 24.923523 5.0539093 33.919556 14.049934c8.995972 8.996017 14.049927 21.197235 14.049927 33.919525l0 221.00597c0 26.492798 -21.476685 47.96945 -47.969482 47.96945l-191.87207 0c-26.492859 0 -47.969482 -21.476654 -47.969482 -47.96945z" fill-rule="nonzero"></path><path fill="#000000" fill-opacity="0.0" d="m227.62993 142.65355l170.83464 0l0 35.55905l-170.83464 0z" fill-rule="nonzero"></path><path fill="#000000" d="m238.19243 169.57355l0 -13.59375l9.171875 0l0 1.59375l-7.375 0l0 4.21875l6.375 0l0 1.609375l-6.375 0l0 6.171875l-1.796875 0zm11.099106 -11.6875l0 -1.90625l1.671875 0l0 1.90625l-1.671875 0zm0 11.6875l0 -9.859375l1.671875 0l0 9.859375l-1.671875 0zm4.097946 0l0 -13.59375l1.671875 0l0 13.59375l-1.671875 0zm10.926071 -3.171875l1.71875 0.21875q-0.40625 1.5 -1.515625 2.34375q-1.09375 0.828125 -2.8125 0.828125q-2.15625 0 -3.421875 -1.328125q-1.265625 -1.328125 -1.265625 -3.734375q0 -2.484375 1.265625 -3.859375q1.28125 -1.375 3.328125 -1.375q1.984375 0 3.234375 1.34375q1.25 1.34375 1.25 3.796875q0 0.140625 -0.015625 0.4375l-7.34375 0q0.09375 1.625 0.921875 2.484375q0.828125 0.859375 2.0625 0.859375q0.90625 0 1.546875 -0.46875q0.65625 -0.484375 1.046875 -1.546875zm-5.484375 -2.703125l5.5 0q-0.109375 -1.234375 -0.625 -1.859375q-0.796875 -0.96875 -2.078125 -0.96875q-1.140625 0 -1.9375 0.78125q-0.78125 0.765625 -0.859375 2.046875zm13.902771 1.5l1.6875 -0.140625q0.125 1.015625 0.5625 1.671875q0.4375 0.65625 1.359375 1.0625q0.9375 0.40625 2.09375 0.40625q1.03125 0 1.8125 -0.3125q0.796875 -0.3125 1.1875 -0.84375q0.390625 -0.53125 0.390625 -1.15625q0 -0.640625 -0.375 -1.109375q-0.375 -0.484375 -1.234375 -0.8125q-0.546875 -0.21875 -2.421875 -0.65625q-1.875 -0.453125 -2.625 -0.859375q-0.96875 -0.515625 -1.453125 -1.265625q-0.46875 -0.75 -0.46875 -1.6875q0 -1.03125 0.578125 -1.921875q0.59375 -0.90625 1.703125 -1.359375q1.125 -0.46875 2.5 -0.46875q1.515625 0 2.671875 0.484375q1.15625 0.484375 1.765625 1.4375q0.625 0.9375 0.671875 2.140625l-1.71875 0.125q-0.140625 -1.28125 -0.953125 -1.9375q-0.796875 -0.671875 -2.359375 -0.671875q-1.625 0 -2.375 0.609375q-0.75 0.59375 -0.75 1.4375q0 0.734375 0.53125 1.203125q0.515625 0.46875 2.703125 0.96875q2.203125 0.5 3.015625 0.875q1.1875 0.546875 1.75 1.390625q0.578125 0.828125 0.578125 1.921875q0 1.09375 -0.625 2.0625q-0.625 0.953125 -1.796875 1.484375q-1.15625 0.53125 -2.609375 0.53125q-1.84375 0 -3.09375 -0.53125q-1.25 -0.546875 -1.96875 -1.625q-0.703125 -1.078125 -0.734375 -2.453125zm12.756073 8.171875l-0.171875 -1.5625q0.546875 0.140625 0.953125 0.140625q0.546875 0 0.875 -0.1875q0.34375 -0.1875 0.5625 -0.515625q0.15625 -0.25 0.5 -1.25q0.046875 -0.140625 0.15625 -0.40625l-3.734375 -9.875l1.796875 0l2.046875 5.71875q0.40625 1.078125 0.71875 2.28125q0.28125 -1.15625 0.6875 -2.25l2.09375 -5.75l1.671875 0l-3.75 10.03125q-0.59375 1.625 -0.9375 2.234375q-0.4375 0.828125 -1.015625 1.203125q-0.578125 0.390625 -1.375 0.390625q-0.484375 0 -1.078125 -0.203125zm8.734375 -6.734375l1.65625 -0.265625q0.140625 1.0 0.765625 1.53125q0.640625 0.515625 1.78125 0.515625q1.15625 0 1.703125 -0.46875q0.5625 -0.46875 0.5625 -1.09375q0 -0.5625 -0.484375 -0.890625q-0.34375 -0.21875 -1.703125 -0.5625q-1.84375 -0.46875 -2.5625 -0.796875q-0.703125 -0.34375 -1.078125 -0.9375q-0.359375 -0.609375 -0.359375 -1.328125q0 -0.65625 0.296875 -1.21875q0.3125 -0.5625 0.828125 -0.9375q0.390625 -0.28125 1.0625 -0.484375q0.671875 -0.203125 1.4375 -0.203125q1.171875 0 2.046875 0.34375q0.875 0.328125 1.28125 0.90625q0.421875 0.5625 0.578125 1.515625l-1.625 0.21875q-0.109375 -0.75 -0.65625 -1.171875q-0.53125 -0.4375 -1.5 -0.4375q-1.15625 0 -1.640625 0.390625q-0.484375 0.375 -0.484375 0.875q0 0.328125 0.203125 0.59375q0.203125 0.265625 0.640625 0.4375q0.25 0.09375 1.46875 0.4375q1.765625 0.46875 2.46875 0.765625q0.703125 0.296875 1.09375 0.875q0.40625 0.578125 0.40625 1.4375q0 0.828125 -0.484375 1.578125q-0.484375 0.734375 -1.40625 1.140625q-0.921875 0.390625 -2.078125 0.390625q-1.921875 0 -2.9375 -0.796875q-1.0 -0.796875 -1.28125 -2.359375zm13.65625 1.4375l0.234375 1.484375q-0.703125 0.140625 -1.265625 0.140625q-0.90625 0 -1.40625 -0.28125q-0.5 -0.296875 -0.703125 -0.75q-0.203125 -0.46875 -0.203125 -1.984375l0 -5.65625l-1.234375 0l0 -1.3125l1.234375 0l0 -2.4375l1.65625 -1.0l0 3.4375l1.6875 0l0 1.3125l-1.6875 0l0 5.75q0 0.71875 0.078125 0.921875q0.09375 0.203125 0.296875 0.328125q0.203125 0.125 0.578125 0.125q0.265625 0 0.734375 -0.078125zm8.277039 -1.671875l1.71875 0.21875q-0.40625 1.5 -1.515625 2.34375q-1.09375 0.828125 -2.8125 0.828125q-2.15625 0 -3.421875 -1.328125q-1.265625 -1.328125 -1.265625 -3.734375q0 -2.484375 1.265625 -3.859375q1.28125 -1.375 3.328125 -1.375q1.984375 0 3.234375 1.34375q1.25 1.34375 1.25 3.796875q0 0.140625 -0.015625 0.4375l-7.34375 0q0.09375 1.625 0.921875 2.484375q0.828125 0.859375 2.0625 0.859375q0.90625 0 1.546875 -0.46875q0.65625 -0.484375 1.046875 -1.546875zm-5.484375 -2.703125l5.5 0q-0.109375 -1.234375 -0.625 -1.859375q-0.796875 -0.96875 -2.078125 -0.96875q-1.140625 0 -1.9375 0.78125q-0.78125 0.765625 -0.859375 2.046875zm9.110107 5.875l0 -9.859375l1.5 0l0 1.390625q0.453125 -0.71875 1.21875 -1.15625q0.78125 -0.453125 1.765625 -0.453125q1.09375 0 1.796875 0.453125q0.703125 0.453125 0.984375 1.28125q1.171875 -1.734375 3.046875 -1.734375q1.46875 0 2.25 0.8125q0.796875 0.8125 0.796875 2.5l0 6.765625l-1.671875 0l0 -6.203125q0 -1.0 -0.15625 -1.4375q-0.15625 -0.453125 -0.59375 -0.71875q-0.421875 -0.265625 -1.0 -0.265625q-1.03125 0 -1.71875 0.6875q-0.6875 0.6875 -0.6875 2.21875l0 5.71875l-1.671875 0l0 -6.40625q0 -1.109375 -0.40625 -1.65625q-0.40625 -0.5625 -1.34375 -0.5625q-0.703125 0 -1.3125 0.375q-0.59375 0.359375 -0.859375 1.078125q-0.265625 0.71875 -0.265625 2.0625l0 5.109375l-1.671875 0zm29.864716 -13.59375l1.796875 0l0 7.84375q0 2.0625 -0.46875 3.265625q-0.453125 1.203125 -1.671875 1.96875q-1.203125 0.75 -3.171875 0.75q-1.90625 0 -3.125 -0.65625q-1.21875 -0.65625 -1.734375 -1.90625q-0.515625 -1.25 -0.515625 -3.421875l0 -7.84375l1.796875 0l0 7.84375q0 1.765625 0.328125 2.609375q0.328125 0.84375 1.125 1.296875q0.8125 0.453125 1.96875 0.453125q1.984375 0 2.828125 -0.890625q0.84375 -0.90625 0.84375 -3.46875l0 -7.84375zm3.6604614 10.65625l1.65625 -0.265625q0.140625 1.0 0.765625 1.53125q0.640625 0.515625 1.78125 0.515625q1.15625 0 1.703125 -0.46875q0.5625 -0.46875 0.5625 -1.09375q0 -0.5625 -0.484375 -0.890625q-0.34375 -0.21875 -1.703125 -0.5625q-1.84375 -0.46875 -2.5625 -0.796875q-0.703125 -0.34375 -1.078125 -0.9375q-0.359375 -0.609375 -0.359375 -1.328125q0 -0.65625 0.296875 -1.21875q0.3125 -0.5625 0.828125 -0.9375q0.390625 -0.28125 1.0625 -0.484375q0.671875 -0.203125 1.4375 -0.203125q1.171875 0 2.046875 0.34375q0.875 0.328125 1.28125 0.90625q0.421875 0.5625 0.578125 1.515625l-1.625 0.21875q-0.109375 -0.75 -0.65625 -1.171875q-0.53125 -0.4375 -1.5 -0.4375q-1.15625 0 -1.640625 0.390625q-0.484375 0.375 -0.484375 0.875q0 0.328125 0.203125 0.59375q0.203125 0.265625 0.640625 0.4375q0.25 0.09375 1.46875 0.4375q1.765625 0.46875 2.46875 0.765625q0.703125 0.296875 1.09375 0.875q0.40625 0.578125 0.40625 1.4375q0 0.828125 -0.484375 1.578125q-0.484375 0.734375 -1.40625 1.140625q-0.921875 0.390625 -2.078125 0.390625q-1.921875 0 -2.9375 -0.796875q-1.0 -0.796875 -1.28125 -2.359375zm16.75 -0.234375l1.71875 0.21875q-0.40625 1.5 -1.515625 2.34375q-1.09375 0.828125 -2.8125 0.828125q-2.15625 0 -3.421875 -1.328125q-1.265625 -1.328125 -1.265625 -3.734375q0 -2.484375 1.265625 -3.859375q1.28125 -1.375 3.328125 -1.375q1.984375 0 3.234375 1.34375q1.25 1.34375 1.25 3.796875q0 0.140625 -0.015625 0.4375l-7.34375 0q0.09375 1.625 0.921875 2.484375q0.828125 0.859375 2.0625 0.859375q0.90625 0 1.546875 -0.46875q0.65625 -0.484375 1.046875 -1.546875zm-5.484375 -2.703125l5.5 0q-0.109375 -1.234375 -0.625 -1.859375q-0.796875 -0.96875 -2.078125 -0.96875q-1.140625 0 -1.9375 0.78125q-0.78125 0.765625 -0.859375 2.046875zm9.094452 5.875l0 -9.859375l1.5 0l0 1.5q0.578125 -1.046875 1.0625 -1.375q0.484375 -0.34375 1.078125 -0.34375q0.84375 0 1.71875 0.546875l-0.578125 1.546875q-0.609375 -0.359375 -1.234375 -0.359375q-0.546875 0 -0.984375 0.328125q-0.421875 0.328125 -0.609375 0.90625q-0.28125 0.890625 -0.28125 1.953125l0 5.15625l-1.671875 0z" fill-rule="nonzero"></path><path fill="#000000" fill-opacity="0.0" d="m631.50134 142.65355l170.8346 0l0 35.55905l-170.8346 0z" fill-rule="nonzero"></path><path fill="#000000" d="m642.06384 169.57355l0 -13.59375l9.171875 0l0 1.59375l-7.375 0l0 4.21875l6.375 0l0 1.609375l-6.375 0l0 6.171875l-1.796875 0zm20.22406 -13.59375l1.796875 0l0 7.84375q0 2.0625 -0.46875 3.265625q-0.453125 1.203125 -1.671875 1.96875q-1.203125 0.75 -3.171875 0.75q-1.90625 0 -3.125 -0.65625q-1.21875 -0.65625 -1.734375 -1.90625q-0.515625 -1.25 -0.515625 -3.421875l0 -7.84375l1.796875 0l0 7.84375q0 1.765625 0.328125 2.609375q0.328125 0.84375 1.125 1.296875q0.8125 0.453125 1.96875 0.453125q1.984375 0 2.828125 -0.890625q0.84375 -0.90625 0.84375 -3.46875l0 -7.84375zm3.9417114 9.21875l1.6875 -0.140625q0.125 1.015625 0.5625 1.671875q0.4375 0.65625 1.359375 1.0625q0.9375 0.40625 2.09375 0.40625q1.03125 0 1.8125 -0.3125q0.796875 -0.3125 1.1875 -0.84375q0.390625 -0.53125 0.390625 -1.15625q0 -0.640625 -0.375 -1.109375q-0.375 -0.484375 -1.234375 -0.8125q-0.546875 -0.21875 -2.421875 -0.65625q-1.875 -0.453125 -2.625 -0.859375q-0.96875 -0.515625 -1.453125 -1.265625q-0.46875 -0.75 -0.46875 -1.6875q0 -1.03125 0.578125 -1.921875q0.59375 -0.90625 1.703125 -1.359375q1.125 -0.46875 2.5 -0.46875q1.515625 0 2.671875 0.484375q1.15625 0.484375 1.765625 1.4375q0.625 0.9375 0.671875 2.140625l-1.71875 0.125q-0.140625 -1.28125 -0.953125 -1.9375q-0.796875 -0.671875 -2.359375 -0.671875q-1.625 0 -2.375 0.609375q-0.75 0.59375 -0.75 1.4375q0 0.734375 0.53125 1.203125q0.515625 0.46875 2.703125 0.96875q2.203125 0.5 3.015625 0.875q1.1875 0.546875 1.75 1.390625q0.578125 0.828125 0.578125 1.921875q0 1.09375 -0.625 2.0625q-0.625 0.953125 -1.796875 1.484375q-1.15625 0.53125 -2.609375 0.53125q-1.84375 0 -3.09375 -0.53125q-1.25 -0.546875 -1.96875 -1.625q-0.703125 -1.078125 -0.734375 -2.453125zm13.0842285 4.375l0 -13.59375l9.84375 0l0 1.59375l-8.046875 0l0 4.171875l7.53125 0l0 1.59375l-7.53125 0l0 4.625l8.359375 0l0 1.609375l-10.15625 0zm23.767456 0l0 -1.25q-0.9375 1.46875 -2.75 1.46875q-1.171875 0 -2.171875 -0.640625q-0.984375 -0.65625 -1.53125 -1.8125q-0.53125 -1.171875 -0.53125 -2.6875q0 -1.46875 0.484375 -2.671875q0.5 -1.203125 1.46875 -1.84375q0.984375 -0.640625 2.203125 -0.640625q0.890625 0 1.578125 0.375q0.703125 0.375 1.140625 0.984375l0 -4.875l1.65625 0l0 13.59375l-1.546875 0zm-5.28125 -4.921875q0 1.890625 0.796875 2.828125q0.8125 0.9375 1.890625 0.9375q1.09375 0 1.859375 -0.890625q0.765625 -0.890625 0.765625 -2.734375q0 -2.015625 -0.78125 -2.953125q-0.78125 -0.953125 -1.921875 -0.953125q-1.109375 0 -1.859375 0.90625q-0.75 0.90625 -0.75 2.859375zm9.250732 4.921875l0 -9.859375l1.5 0l0 1.5q0.578125 -1.046875 1.0625 -1.375q0.484375 -0.34375 1.078125 -0.34375q0.84375 0 1.71875 0.546875l-0.578125 1.546875q-0.609375 -0.359375 -1.234375 -0.359375q-0.546875 0 -0.984375 0.328125q-0.421875 0.328125 -0.609375 0.90625q-0.28125 0.890625 -0.28125 1.953125l0 5.15625l-1.671875 0zm6.2439575 -11.6875l0 -1.90625l1.671875 0l0 1.90625l-1.671875 0zm0 11.6875l0 -9.859375l1.671875 0l0 9.859375l-1.671875 0zm6.8635254 0l-3.75 -9.859375l1.765625 0l2.125 5.90625q0.34375 0.953125 0.625 1.984375q0.21875 -0.78125 0.625 -1.875l2.1875 -6.015625l1.71875 0l-3.734375 9.859375l-1.5625 0zm13.34375 -3.171875l1.71875 0.21875q-0.40625 1.5 -1.515625 2.34375q-1.09375 0.828125 -2.8125 0.828125q-2.15625 0 -3.421875 -1.328125q-1.265625 -1.328125 -1.265625 -3.734375q0 -2.484375 1.265625 -3.859375q1.28125 -1.375 3.328125 -1.375q1.984375 0 3.234375 1.34375q1.25 1.34375 1.25 3.796875q0 0.140625 -0.015625 0.4375l-7.34375 0q0.09375 1.625 0.921875 2.484375q0.828125 0.859375 2.0625 0.859375q0.90625 0 1.546875 -0.46875q0.65625 -0.484375 1.046875 -1.546875zm-5.484375 -2.703125l5.5 0q-0.109375 -1.234375 -0.625 -1.859375q-0.796875 -0.96875 -2.078125 -0.96875q-1.140625 0 -1.9375 0.78125q-0.78125 0.765625 -0.859375 2.046875zm9.094482 5.875l0 -9.859375l1.5 0l0 1.5q0.578125 -1.046875 1.0625 -1.375q0.484375 -0.34375 1.078125 -0.34375q0.84375 0 1.71875 0.546875l-0.578125 1.546875q-0.609375 -0.359375 -1.234375 -0.359375q-0.546875 0 -0.984375 0.328125q-0.421875 0.328125 -0.609375 0.90625q-0.28125 0.890625 -0.28125 1.953125l0 5.15625l-1.671875 0z" fill-rule="nonzero"></path></g></svg>

